<?xml version="1.0" encoding="utf-8"?>
<!-- Generator: Adobe Illustrator 19.1.0, SVG Export Plug-In . SVG Version: 6.00 Build 0)  -->
<svg version="1.1" id="Layer_1" xmlns="http://www.w3.org/2000/svg" xmlns:xlink="http://www.w3.org/1999/xlink" x="0px" y="0px"
	 viewBox="0 0 792 1224" style="enable-background:new 0 0 792 1224;" xml:space="preserve">
<style type="text/css">
	.st0{fill:#B0C7B1;}
	.st1{fill:#E6E6E5;}
	.st2{fill:none;stroke:#FFFFFF;stroke-miterlimit:10;}
	.st3{fill:#6EA27A;}
	.st4{fill:#F18931;}
	.st5{fill:#010101;}
	.st6{font-family:'MyriadPro-Regular';}
	.st7{font-size:10.6693px;}
	.st8{fill:#F08830;}
	.st9{font-size:7px;}
	.st10{fill:#ACCE79;}
	.st11{fill:#F6F7F2;}
	.st12{font-family:'MyriadPro-Bold';}
	.st13{font-size:29px;}
	.st14{fill:none;stroke:#000000;stroke-miterlimit:10;}
	.st15{fill:#F5A564;}
	.st16{fill:none;}
	.st17{font-size:11px;}
	.st18{fill:none;stroke:#ADADAD;stroke-width:0.5;stroke-miterlimit:10;stroke-dasharray:2,2;}
	.st19{fill:none;stroke:#6EA27A;stroke-width:2;stroke-miterlimit:10;}
	.st20{stroke:#000000;stroke-width:0.5;stroke-miterlimit:10;}
	.st21{font-size:7.9649px;}
	.st22{font-size:10px;}
	.st23{fill:#D4E3B8;}
	.st24{font-size:15px;}
	.st25{fill:#808080;stroke:#000000;stroke-width:0.5;stroke-miterlimit:10;}
	.st26{fill:#404040;stroke:#000000;stroke-width:0.5;stroke-miterlimit:10;}
	.st27{fill:#F9BE8C;}
	.st28{fill-rule:evenodd;clip-rule:evenodd;fill:#ACCE79;}
	.st29{fill-rule:evenodd;clip-rule:evenodd;fill:#D4E3B8;}
	.st30{fill-rule:evenodd;clip-rule:evenodd;fill:#F18931;}
	.st31{fill-rule:evenodd;clip-rule:evenodd;fill:#6EA27A;}
	.st32{fill-rule:evenodd;clip-rule:evenodd;fill:#F5A564;}
	.st33{fill:#EEF4E5;}
	.st34{fill:none;stroke:#F9BE8C;stroke-width:3;stroke-miterlimit:10;}
	.st35{fill:none;stroke:#F9BE8C;stroke-miterlimit:10;}
	.st36{fill:none;stroke:#F9BE8C;stroke-width:2;stroke-miterlimit:10;}
	.st37{opacity:0.6;fill:#F9BE8C;}
	.st38{fill:none;stroke:#F9BE8C;stroke-width:4;stroke-miterlimit:10;}
	.st39{fill-rule:evenodd;clip-rule:evenodd;fill:none;stroke:#ADADAD;stroke-width:0.5;stroke-miterlimit:10;stroke-dasharray:2,2;}
	.st40{fill:none;stroke:#F18931;stroke-width:2;stroke-miterlimit:10;}
</style>
<rect x="534.8" y="914.6" class="st0" width="228.1" height="29.3"/>
<g>
	<path class="st1" d="M335.9,372.1l3.1,0.3l1.8,0.6l3.4-1.6l2.5-1.9l3.1-0.6h2.8l4-5.2h7.1h6.5c0,0,10.5,8.4,8.3,11
		c3.7-5.5,7.7-9.1,7.7-9.1l2.2-3.9h3.7l0.6-5.5l1.8-4.8l4.9-5.2l3.1-4.2v-4.5l8.9,2.3l4.6-2.3h3.1l5.5-6.5h2.2h3.1l0.8,2.1l3.8,10.2
		l2.5-0.3l1.5-9.1c0,0,22.2-7.1,19.7,3.2c0.2,2.6,0.2,4.5,0.2,4.5l12.4,0.6l4.3-3.6l1.5,0.6v3.9l9.2,0.6l15.4,0.6
		c0,0,2.5-3.2,4.3-2.3c1.8,1,4.9-1.6,4.9-1.6l5.9-1.3c0,0,4.3,2.6,4,4.2c-0.3,1.6,5.2,10,5.2,10s2.5,7.1,9.9,7.4
		c2.5,1.6,7.1,3.2,7.1,3.2l6.5,7.8l9.6,13.3h5.5l3.1-1.6l3.1,1l3.4,1.3l4.3-3.2l3.7,1.9h5.9l7.1,1.9l2.8,2.6l1.8,1.3h4.3
		c0,0,7.4,10,8.9,7.4c2.5,7.1,5.9,15.2,5.9,15.2l3.1,6.8l4,2.3v4.8l4.6,7.1l6.5,4.8l1.8,1l1.5-1.9l3.1,2.3v1.6l4.3,1.3h3.1l2.8,1
		l2.8,1.6l4.6,1.3l4.3,1l2.2,1.6l3.7-2.6l1.8,5.2l1.5,1.9v3.6l2.2,1.6l1.8-1v5.5v2.3l4,1.6l4.9-0.3l5.9,1.3l7.4-1l2.8-0.3l2.8,1
		l4-1.3l3.7,1.9l4.3,0.3l4,4.2l2.8,1.6l5.9,1.9l2.2-3.9l2.2,0.3c0,0,1.8,4.8-2.8,6.1c3.1,2.9,3.1,6.1,3.1,6.1l6.1,3.2l6.2,2.6
		c0,0,8.6,22.5,7.4,27c2.2,2.3,8.3,23.6,0.1,32c-2.3,1.6-8.1-18.6-8.1-18.6s4.3,8.4-16,19.1c0.3,2.6-1.8,4.2-1.8,4.2l1.2,1.9
		l-0.6,2.3l-1.8,2.3c0,0-14.2,12.9-10.8,23.6c0.3,4.2-0.9,8.7-0.9,8.7l-0.9,6.8l-1.5,4.2l-3.7,8.4l-1.8,5.8c0,0,3.1,20.4-10.5,20
		c-0.9,2.9-2.5,7.1-2.5,7.1l-4.3,2.9l-1.8,3.6c0,0-23.4,3.2-25.6,7.8c-1.8-1.3-8.6,1.6-8.6,1.6L647,665h-2.8l-6.5,11.6l-182.1-2.8
		l-1.4-23.6l0-2.9l-1.9-2.9l3.1-3.6l-1.6-7.7l0-6.1l-1.6-4.5l-1.6-5.8l-3.1-4.5c0,0-7.2-11.3-15.2-9.3c-6.8-4.2-24.1-13.6-22.2-9.9
		c-0.9,1.9-3.1-6.3-3.1-6.3l-4-1.9l-4-4.2l-2.2-2.9l1.5-4.2l-5.9-6.5l-5.2-8.7l-1.5-5.5l-7.7-5.5c0,0-17.6-38.5-26.2-34.9
		c-2.2-8.4-5.2-17.6-5.2-17.6l1.8-7.3l1.5-7.8l3.7-9.7l-3.4-5.8l1.5-7.8l0.9-4.2l-2.8-1.9l0.9-4.8l5.2-3.2l8.6-7.4
		c0,0,19.1-28.5,16-30.4c-0.6-5.2-5.5-22.3-10.8-22.3c-2.5-5.8-4.3-11-4.3-11l-5.9-3.9c0,0-4.3,0.3-4,5.8c-1.8-0.6-3.1-1-3.1-1
		l-0.6,5.5c0,0,1.8,3.6-3.1,5.8c-2.5,2.6-4,2.9-4,2.9s-0.6-6.8-4.9-5.8c-4.3-1.9-4.3-3.9-4.3-3.9"/>
	<path class="st2" d="M583.9,675.8l2.5-8.2v-7.1h-2.5l-5.2,1.3c0,0,0.6-20-8.9-16.5c-8.9-0.4-13.6-2.9-13.6-2.9v-7.8l-2.2-7.8
		c0,0,8.6-0.6,2.2-9.1c2.5-4.8,3.1-10.3,3.1-10.3l-2.8-8.1c0,0-5.9-4.5-2.5-9.7c-5.9,0-15.4,0-15.4,0l-4.9-9.7l2.8-6.5
		c0,0-3.7-11.3-16.3-9.4c-3.4-4.5-8-6.1-8-6.1l-2.5-2.3h-9.6l-8-7.4l-3.7-15.8h-4h-5.5l-9.2,7.8l-5.9,1.6v3.2l-7.1-1.3l-6.2,0.6
		l-4.6,1.3c0,0-3.4-9.1-1.5-18.4c-4,4.8-8,9.7-8,9.7l-4-0.6l-1.5,1.3l-4-4.5l-3.1,1.3l-2.8-3.9l1.5-3.2l-5.2-3.9l-2.8-5.2v-3.9v-4.2
		v-3.2l4.3-1.6l-0.6-7.8l4.6-4.2l2.8-4.2l4.6-3.9h5.9l3.1-3.9h4.9c0,0,6.8-3.9-2.5-4.5c0-3.6,8.9-19.4-15.1-9.1
		c-6.8,0-8.9-3.5-8.9-3.5l-3.1-4l-7.7-7.4l-4.9-4.2l-5.2,1.3h-4.9l-2.8-3.6h-6.2l-6.5-3.6l-8.9-2.6l-2.5-5.5"/>
	<path class="st2" d="M396.6,450l1.8,5.8l-5.5,11l-7.1,5.8l-8.3,6.8l-5.9,7.4l-3.4,7.9l-1.8,3.1l-4.3-3.1c0,0-8.3-0.5-8.3-2.4
		s1.8-5.5,1.8-5.5l-1.8-2.3l-4.4-1.5"/>
	<path class="st2" d="M473,672.5v-4.2l5.2-1.6l2.5-2.9c0,0,5.2-9.7-3.9-8.7c-1.2-5.2-7.2-31.4-7.9-25.5c3.4,0.6-1.2-7.4-1.2-7.4
		l-4-2.9l-1.8-5.2v-3.2l-5.2-4.2l4-7.4l3.4-4.8l-4.9-7.1l-1.2-7.4l5.2-6.1l-3.7-12l2.2-4.2l-6.5-11.3v-2.1"/>
	<polyline class="st2" points="449.8,615.4 455.1,613.6 456.3,608.2 	"/>
	<polyline class="st2" points="480.2,655.3 487.5,647.6 489.9,645 493,646.9 497,645 499.2,645 502.9,651.4 505.6,650.1 
		509.3,646.6 515.5,645 524.4,652.7 532.4,660.5 539.5,660.5 545.1,663.4 547.5,667 556.8,672.5 561.1,675.5 	"/>
	<polyline class="st2" points="515.5,645 518.9,642.7 520.6,634.6 520.6,629.1 526,621 528.1,619.4 535.5,621 539.2,619.4 
		543.5,619.4 550,619.4 554,626.9 	"/>
	<path class="st3" d="M533.4,578.3l-1.5,3.6v3.6l-11.1,7.4l-7.7,12.9h-2.5c0,0-5.9,3.6-4.9,8.1c-0.1,3.9-2.2,6.3-2.2,6.3
		s-7.1-8.2-10.2-5.6c-4.3-0.6-12-9.4-12-9.4l-3.1-5.9l1.8-3.1l-3.2-4.2l-2.6,2.3l-2.2-0.3l-2.2-1.6l-2.4,1.6l-1.5-3.6l1.8-2.3
		l-8.6-9.7l-1.5,2.3l-5.2-2.3h-3.7l-3.1-1.3l-2.5-3.2l-1.8,2.6c0,0-5.2-1-3.4-6.8c-2.5,0-4.9-3.6-4.9-3.6l-6.2-2.3l-4.6-1.5
		l-3.4,4.2v3.9l-2.5-6.6l-1.5-4.8v-4.2H413c0,0-0.6,3.6-1.5,3.9s-1.5,2.9-1.5,2.9l1.5,3.9l-1.5,1l-3.4-2.7v-5.4l-6.8-3.6l3.1-2.4
		l5.2,1.8l0.6-1.8l-4-12.8l-1.5,3.2c0,0,1.5,12-3.4,7.4c-4-5.8-6.5-10.7-6.5-10.7v-8.7v-5.5h1.5c0,0-9.6-9.7-4-10.7
		c5.5-1,5.5-1,5.5-1c-2.8,0.6-1.6-7.4-7.3-6.1c-4.7-1.3-4.4-4.4-4.4-4.4s-3.8,2.6-12.5-6c-3.2,3-6,2.3-6,2.3l2.5-2.3l0.6-3.8
		l-3.1-1.9l4.9-6.1l-0.6-6.8l3.4-5.8l1.4-4.8l-2.6-9.4h4.6l1.8-10l3.4-5.2l5.9-5.5l2.8,2.6l1.2-2.6l2.2-2.9l2.8,1.9l5.2-1.9l1.2-4.8
		l0.6-3.2l-2.2-3.6l2.8-4.5l2.8,2.9l1.2,4.8l-0.9,7.8l0.3,1.6l2.8-1.3l-0.6-5.5l1.2-7.1l1.8-4.8h3.7l2.5,2.6v2.6l2.5,0.6l0.3,2.9
		l-3.4,1.6l1.2,1.6l5.5-2.3l3.1-7.1l1.8-2.6l4.9-2.3l2.8-1.6h3.4l3.4-5.2h9.6l8.9-7.1l3.7-6.1l-0.6,10l1.2,5.2l3.4-0.3l2.5,1.3
		l2.9,1.9l2,1.6l2.2,0.6l0.6-2.3l1.8,3.6l1.9,1.3c0,0,4-8.7,4.9-3.2c0.9,5.5,0.9,5.5,0.9,5.5l2.2,1.6l1.8-4.8l-0.6-5.2l-1.5-2.3
		l2.5-1.6l1.8-0.3l7.1,4.5l5.5-1.3l9.9-3.6l8.3-7.4V396l-0.6-5.5l-0.6-7.8h6.5l-2.8-5.2l7.9-7.1l5.4,2.3l16,21l6.8-0.6l1.8-1
		l6.5,2.3l4.3-3.2l3.7,1.9h5.9l7.1,1.9l4.6,3.9h4.3l7.1,7.5l1.9,0l8.9,22l4,2.3v4.8l3.4,5.2l1.3,1.9l8.3,5.8l1.5-1.9l3.1,2.3v1.6
		l4.3,1.3h3.1l5.5,2.6l8.9,2.3l2.2,1.6l3.7-2.6l1.8,5.2l1.5,1.9v3.6l2.2,1.6l1.8-1v7.8v2.6v31.4l-4.6,2.3l-0.9,3.2l-6.8,2.3
		l-3.1,9.4l-1.8,2.6l2.2,4.5l-1.8,7.4l2.8,0.3l0.6-2.6l1.5,2.9l-4.9,2.9l-4,4.2l-0.9,1.6l5.5,2.7l-2.5,2.1l0.3,3.2l1.5,1l-1.2,1.9
		l0.9,3.1l-0.6,2.7l-3.4-1l-3.1,1.6l-2.2,1l-3.1-0.3v2.3l-5.2-2.3l-2.5,1.6l-3.4-5.6l-4,1.7l-0.3,3.9l-8-3.6l-0.6-2l0.9-2.5
		l-2.5,0.6l-0.9,3.2l-1.5,4.8l-1.2,5.5l-1.2,6.1c0,0-0.6,4.5-4.6,5.5c-1.5,2.9-2.8,6.1-2.8,6.1h-3.1l-3.4,3.6l-3.1,6.8l-2.8,5.5
		l2.8,3.9v1.6l-3.4-1.6l-2.5,1.3l-2.5-2.3l2.8-2.9l-2.2-1.9l-3.4,4.5l-3.7-2.6l-3.4,2.9l-9.9-5.8l-4.6,1l-6.2,6.1l-4.9-2.8l1.2-2.4
		l-4.6-3.2V598h-15.4l-4.9-9.7l2.8-6.5L533.4,578.3z"/>
	<path class="st2" d="M445.8,477.8l4-9v-5.5l2-7.1l-1.5-6.1l-5.9-6.5v-2.9l3.7-1.9c0,0,10.2-4.2,0-6.8c-1.5-1.6-1.5-6.1-1.5-6.1h4
		h4.6l1.5-1.3h5.2l3.4-2.3h1.5h2.8v-2.3l-3.7-4.5l2.2-4.8v-3.2l-4.6-4.2l-0.3-10.7l3.7-9.4h-6.2l-7.1,1.9l-0.6,1.6l-8.6-5.2
		l-6.5-2.3l-6.8,1.9l-6.8-4.2l-2.8-5.5l-4.6-8.1l-4.6-3.6l3.1-2.9v-9.7l3.4-1.9l7.1-6.8l4.8-5.4"/>
	<polyline class="st2" points="469.6,422.2 473,430.6 479.4,432.2 485,432.2 488.7,428.7 492.7,428.7 495.2,427.2 498.2,422.2 
		501.3,420.3 503.5,418 501.9,415.4 498.9,415.4 496.1,412.5 496.7,405.5 493.3,401.2 495.5,399.9 500.4,403.5 503.5,405.5 
		509.9,403.5 519.2,399.9 528.4,391.5 533,389.9 534.9,397.6 538,398.6 534.9,408 535.5,415.7 539.8,424.5 545.4,427.4 548.8,424.8 
		554.3,422.9 561.1,419 561.1,411.1 555.8,405.5 551.2,398.9 551.2,394.7 554.9,392.1 558.3,392.8 558.6,385.4 	"/>
	<polyline class="st2" points="528.4,391.5 523.8,385.4 521.7,380.5 523.2,376 530.9,374.4 527.8,369.2 535.5,361.1 	"/>
	<polyline class="st2" points="561.1,414.8 565.4,419.9 571.6,419.9 569.7,414.8 578.3,411.9 582.6,415.9 588.5,417.7 599,417.4 
		603,408.8 610.9,398.1 	"/>
	<polyline class="st2" points="587.6,384.7 586,391.5 584.2,396 589.1,405.5 584.2,416.4 	"/>
	<path class="st2" d="M583.9,675.8l2.5-8.2v-7.1h-2.5l-5.2,1.3c0,0,0.6-20-8.9-16.5c-8.9-0.4-13.6-2.9-13.6-2.9v-7.8l-2.2-7.8
		c0,0,8.6-0.6,2.2-9.1c2.5-4.8,3.1-10.3,3.1-10.3l-2.8-8.1c0,0-5.9-4.5-2.5-9.7c-5.9,0-15.4,0-15.4,0l-4.9-9.7l2.8-6.5
		c0,0-3.7-11.3-16.3-9.4c-3.4-4.5-8-6.1-8-6.1l-2.5-2.3h-9.6l-8-7.4l-3.7-15.8h-4h-5.5l-9.2,7.8l-5.9,1.6v3.2l-7.1-1.3l-6.2,0.6
		l-4.6,1.3c0,0-3.4-9.1-1.5-18.4c-4,4.8-8,9.7-8,9.7l-4-0.6l-1.5,1.3l-4-4.5l-3.1,1.3l-2.8-3.9l1.5-3.2l-5.2-3.9l-2.8-5.2v-3.9v-4.2
		v-3.2l4.3-1.6l-0.6-7.8l4.6-4.2l2.8-4.2l4.6-3.9h5.9l3.1-3.9h4.9c0,0,6.8-3.9-2.5-4.5c0-3.6,8.9-19.4-15.1-9.1
		c-6.8,0-8.9-3.5-8.9-3.5l-3.1-4l-7.7-7.4l-4.9-4.2l-5.2,1.3h-4.9l-2.8-3.6h-6.2l-6.5-3.6l-8.9-2.6l-2.5-5.5"/>
	<path class="st2" d="M396.6,450l1.8,5.8l-5.5,11l-7.1,5.8l-8.3,6.8l-5.9,7.4l-3.4,7.9l-1.8,3.1l-4.3-3.1c0,0-8.3-0.5-8.3-2.4
		s1.8-5.5,1.8-5.5l-1.8-2.3l-4.4-1.5"/>
	<path class="st2" d="M473,672.5v-4.2l5.2-1.6l2.5-2.9c0,0,5.2-9.7-3.9-8.7c-1.2-5.2-7.2-31.4-7.9-25.5c3.4,0.6-1.2-7.4-1.2-7.4
		l-4-2.9l-1.8-5.2v-3.2l-5.2-4.2l4-7.4l3.4-4.8l-4.9-7.1l-1.2-7.4l5.2-6.1l-3.7-12l2.2-4.2l-6.5-11.3v-2.1"/>
	<polyline class="st2" points="449.8,615.4 455.1,613.6 456.3,608.2 	"/>
	<polyline class="st2" points="480.2,655.3 487.5,647.6 489.9,645 493,646.9 497,645 499.2,645 502.9,651.4 505.6,650.1 
		509.3,646.6 515.5,645 524.4,652.7 532.4,660.5 539.5,660.5 545.1,663.4 547.5,667 556.8,672.5 561.1,675.5 	"/>
	<polyline class="st2" points="515.5,645 518.9,642.7 520.6,634.6 520.6,629.1 526,621 528.1,619.4 535.5,621 539.2,619.4 
		543.5,619.4 550,619.4 554,626.9 	"/>
	<path class="st2" d="M445.8,477.8l4-9v-5.5l2-7.1l-1.5-6.1l-5.9-6.5v-2.9l3.7-1.9c0,0,10.2-4.2,0-6.8c-1.5-1.6-1.5-6.1-1.5-6.1h4
		h4.6l1.5-1.3h5.2l3.4-2.3h1.5h2.8v-2.3l-3.7-4.5l2.2-4.8v-3.2l-4.6-4.2l-0.3-10.7l3.7-9.4h-6.2l-7.1,1.9l-0.6,1.6l-8.6-5.2
		l-6.5-2.3l-6.8,1.9l-6.8-4.2l-2.8-5.5l-4.6-8.1l-4.6-3.6l3.1-2.9v-9.7l3.4-1.9l7.1-6.8l4.8-5.4"/>
	<polyline class="st2" points="469.6,422.2 473,430.6 479.4,432.2 485,432.2 488.7,428.7 492.7,428.7 495.2,427.2 498.2,422.2 
		501.3,420.3 503.5,418 501.9,415.4 498.9,415.4 496.1,412.5 496.7,405.5 493.3,401.2 495.5,399.9 500.4,403.5 503.5,405.5 
		509.9,403.5 519.2,399.9 528.4,391.5 533,389.9 534.9,397.6 538,398.6 534.9,408 535.5,415.7 539.8,424.5 545.4,427.4 548.8,424.8 
		554.3,422.9 561.1,419 561.1,411.1 555.8,405.5 551.2,398.9 551.2,394.7 554.9,392.1 558.3,392.8 558.6,385.4 	"/>
	<polyline class="st2" points="528.4,391.5 523.8,385.4 521.7,380.5 523.2,376 530.9,374.4 527.8,369.2 535.5,361.1 	"/>
	<polyline class="st2" points="561.1,414.8 565.4,419.9 571.6,419.9 569.7,414.8 578.3,411.9 582.6,415.9 588.5,417.7 599,417.4 
		603,408.8 610.9,398.1 	"/>
	<polyline class="st2" points="587.6,384.7 586,391.5 584.2,396 589.1,405.5 584.2,416.4 	"/>
	<polygon class="st4" points="427.8,514.4 426,514.4 426,511.8 423,513.1 420.5,514.4 419.1,514.4 419.1,513.1 420.7,513.1 
		423.5,511.8 425.5,510.6 427.8,511.8 430.2,514.4 431.8,514.4 	"/>
	<polygon class="st4" points="435.9,526.3 434.8,526.3 434.8,524.6 436.2,523.7 437.3,522.9 439.9,520.3 438.7,520.3 437.3,518.8 
		439.9,517.8 441.9,517.8 441.9,519.3 440.9,522.1 440.9,523.7 438.4,526.3 438.4,527.8 	"/>
	<path class="st4" d="M460.7,534.6h-3.5l1.7-2.4l1.7-1.2l-1.7-4.6l4,4.1l3.2,1.5l1.2-1.5v-2.7h1.3v2.7l2.9-2.7l1.8-1.5v-4.6l3.2-1.2
		v2.3l-2.1,5v1.9l4.9-1.9l1.6-2.9l1.2-0.5l1.6,3.2h5.8c0,0,4.9-6.3,7.2-4.7c2.1-2.3,4.6-8.4,4.6-8.4l1.2,6.5l3.7-0.7l1.4,4.2
		l3.9,3.3h1.6l-1.8-3.3l1.8-1.7l2.2,1.7l3.1-1.7l3.2-1.1l2.8,1.1v1.7h-3.9l0.5,3.3l-0.7,5.3l-0.5,3.4l3.2,4l2.8,3.4l4.9,1.1
		c0,0,1.4,1,0,2.2c-1.4,1.2,3.1,4.4,0.6,6.5c-2.5,2.2,1.9,5.3,1.9,5.3l2.8-3.7l1.8-1.1l1.2,1.1l-1.6,3.7c0,0,3.9,6.5,2.8,9
		c0.2,2.9,2.8,10.4,11.1,10.9c4.2-1.7,6-3.9,6-3.9v-1.5l3.9,0.5l2.6-2.4l1.8-1.2l3.2,1.2v2.2l-2.5,3.2h-1.8l-0.5,3.9h-2.8l-2.2-3.4
		l-0.2,4.6l-0.9,1.5c0,0,2.1,3.2,0.2,3.6c-3.2-1.2-6.7-3.2-6.7-3.2s-3.9-2.9-5.1-1c0,2.9-0.9,4.1-0.9,4.1l-1.8-1.9l-0.7,1.9
		l-0.9-5.1l0.7-2.7h-3.9l-2.3,3.4l-0.9-3.4l1.6-4.8l-1.8-4.6l2.1,1l0.7-3.4c0,0-2.8-0.4-2.3-6.3s-2.3,2.2-2.3,2.2l-2.3,1l-6.2-7.5
		l2.5-3.4l0.9-3.9l-1.8-0.2l-0.9,2.7l-0.5,1.9l-5.5,4.8c0,0,5.2-2.6-1.4-6.1c-3.7-1.9-2.1-3.4-7.4,0.5c-2.3,0.2-3.9-0.2-3.9-0.2
		l-1.6,2.3l-4.2-1.6l-1.6-1.5l3-1.5h4.4l2.5-2.7l3.8-1l2.3-1.7l-2.3-2.7l-1.5-1l-0.2-2.2l-2.5-2.4l-3.5,1.5l-4.6-0.5l-4.2-2.2
		l2.5-3.9l0.7-4.4h4.2l-2.1-1.9l-3.7,0.7l0.2,1.2l-2.3,5.3l-1.4,2.9l-2.5-1.2l-1.6,1.2l-1.6-5.6l-5.1-0.7l-8.2,3.2l-6,4.8l-0.9-4.4
		l-2.4-0.2l-0.9,2.4l-3-1.7L460.7,534.6z"/>
	<polygon class="st4" points="525.3,538.7 526.5,540.4 528.1,538.7 525.3,534.6 524.2,531.9 524.2,529.2 522.8,534.8 524.4,536 
		522.8,538.4 524,540.4 	"/>
	<polygon class="st4" points="531.4,534.8 531.4,531.2 528.1,527.3 531.4,529.2 534.1,529.2 536.2,531 538.1,529.2 539.7,531 
		539.7,532.9 533.9,532.9 533,531 	"/>
	<path class="st4" d="M544.1,538.2l-1.8-3.4v-2.4l1.8-1.3l-0.9-1.8l-0.9-1.9l1.8-2.9h2.3l1.1,4.8l1.2,1.8l2.5-2.8l-2.8-3.9l5.5,0.7
		l1.8,2.2h1.8l1.4-2.9v-2.7l3.7,1.5l4.2,0.2l3.2,1l4.2,0.2l1.2,0.2l-0.9,2.4h-4.2l-5.8-2.7l1.6,2.7h1.4l4.6,1.9l5.5,0.7l5.8-2.7
		l-3.7-9.9l-4.2-2.9l0.9-3.2l-3.2-3.6l0.2-2.2l-1.2-3.6l2.3-6.5l5.1,2.9l1.8,0.5l-1.4,5.2c0,0,2.8,5.7,1.2,8.4
		c2.1,2.7,5.8,9.5,3.7,11.6c-2.1,2.1,1.2,2.4,1.2,2.4l1.2,4.7l3.9-1.8l2.3-1.9c0,0,3.9,5.9-1.2,4.8l-2.8,2.7l-5.5-3.8l6,7.2l1.8,3.4
		l-0.7,2.3h-6.7l-0.2,1.8l1.8,1h2.1l-2.1,3.2c0,0,7.2,5.1,4.2,7.3c-3.2-1.8-8.8,0-8.8,0l-3-1.8l2.5-4.5l0.7-4.4l-1.2-2.5l3.5-3.6
		h2.1v-2.9l-4.2-2.7l-2.5,7.3l0.7,6.3l-2.1,5.1l-0.2,5.1l-1.6,2.4l-2.5-10.2l2.8-4.6l-1.4-3.4l1.6-2.4l-3.7-4.1l-1.4,4.1
		c0,0-0.2-6.5-6.2-4.4c-2.5-2.9-3.2-1.7-9.5,2.2c-0.2,2.2-0.7,3.4-0.7,3.4l-4.2-5.8l-1.6,1.9L544.1,538.2z"/>
	<polygon class="st4" points="547.5,537.9 547.5,542.6 544.8,545.5 546.1,547.4 549.4,545.5 551.2,548.4 552.6,550.8 554,552.3 
		555.4,549.4 554,546.7 557.9,545.1 561.1,543.9 563,545.1 564.6,542.8 563.7,540.4 561.1,542.1 559.3,539.2 557,542.8 553.1,545.1 
		550.1,543.9 	"/>
	<polygon class="st4" points="568.7,564.6 564.6,563.4 561.1,562.2 561.1,558.8 564.9,557.1 566.7,557.1 566.9,555.3 568.8,557.6 
		567.2,561 	"/>
	<polygon class="st4" points="604.5,513.1 600.4,511.9 596.9,510.7 596.9,507.3 600.7,505.6 602.5,505.6 602.7,503.8 604.6,506.1 
		603,509.5 	"/>
	<polygon class="st4" points="636.6,453.2 632.5,452 629,450.8 629,447.4 632.8,445.7 634.6,445.7 634.8,443.9 636.7,446.2 
		635.1,449.6 	"/>
	<path class="st4" d="M610.6,532.4l1.8,2.4l3.5,1.7l2.5-1.7l-0.9-3.8h-3l-1.6-5.2l0.5-3.9l3.9-3.2h2.3l3.7,1.9l1.8,0.7l1.4-1.5
		l-5.1-3.9c0,0,6.9-13.3,7.9-9.2s0,6.5,0,6.5l0.4,2.2l1.9-1.2l3,1.9l1.8,2.7v4.4l1.4,0.7l1.2-2.8v-14.2l4.2-5.7l-1.2-9.3l2.3-1.5
		l1.2,4.6l1.2,1.7l1.8-1.7l1.8,2.2l1.6-0.5l-1.4-2.2l1.4-2.7l-2.5-1.5l2.5-1.7h2.3l-1.4-5.8l5.3-3.6l2.3,3.9l2.1-0.5v-3.4h1.2v3.4
		l-1.4,4.1l-2.3,3.6l-0.2,1.5l5.3-5.1l1.2,3.6l1.8-0.5v-2.9l2.8,1l2.1-1v2.7v1.7l5.1,0.7v-9.7l-5.5-1.2l-1.2-1.9l1.6-6.8v-2.9l3-3.9
		h-1.8l-3.7,2.9l-3.9-1l-0.7-1.9h3.9l1.8-3.2l0.2-3.2l2.3-1.9l-4.9,1.9h-5.5l2.5-3.6l1.8,2.4l3-1.2l1.6-2.4l-4.6-3.6l-1.6,1.5
		l-2.5-1.5l-2.5,6.3l-12.7-1.7l-2.3,11.4l3.2,3.2l4.6-1.7l0.9-2.4l-2.8-5.1l0.7-3.2l2.3,1.7l4.6-0.2l0.9,3.2v3.4l-4.6,0.7v1.9
		l3.5,1.7l-0.9,2.7l-3,2.9l-3.5,1.2l-4.2-3.2l-0.9-3.6L646,472l-4.2-0.5v1.9l1.4,2.9l-0.7,1.5l-3.5-4.1l-0.2,2.2l1.4,2.9l-2.3,2.4
		l-1.2,2.2v-7l-2.8-4.1l0.7-4.6l1.4-7.3l4.6,2.7l2.5-3.4l2.3,1.5l0.5-3.6L636,456l-6.5,4.1l-2.1,5.6l5.3-5.3l-0.2,4.6l-3,7l1.2,5.8
		l2.5,8.2l-4.9-2.2l-3.5,2.2l3.5,2.9l-3,2.7l-3,2.2l4.2,1.5l-5.8,4.6l-7.4-4.6l3-4.1l1.8-2.2c0,0,3.2-1.2,5.3,1.7
		c4.9-1.7,0.2-7.3,0.2-7.3l-2.5-0.5l0.9-3.6l4.4-3.2l1.2-8l-0.7-9l2.5-3.9l-5.5,2.7l1.2,6.3l-1.4,4.4l1.2,1.5c0,0-0.2,1.9-3.7,1.9
		c-3-3.2-6.2-5.3-6.2-5.3l-3.2,0.2l-3.7-4.6l1.6-2.7l-2.8-0.5l-1.8,2.2l-3.9,2.4l-1.6,1.7l-4.3,1.2l-2.8,2.7l-2.1,2.4l-3.9,1
		l-7.2,4.1c0,0-5.3-4.8-6.9-2.7c-3.5,0.7-4.9,6.8-4.9,6.8l1.4,2.2l3,3.4l1.4-3.2l2.3-0.5v-3.4l3.7-1l2.8,0.7l2.8-2.9l1.6-1l6.7,1.7
		l2.1-3.9l5.5-2.2l0.7,1.7l4.9-1.7l2.8,0.7l3.9,2.4l3.7,3.6v9.7c0,0-7.6-1.7-6.9,6.3c-4.6,0-7.4-2.4-7.4-2.4l-2.5,2.4l-6.2-4.6
		l-1.2,1.2l2.8,3.4l-2.8,3.4l4.2,2.7l4.6,1.5h4.9h4.9l2.1-2.7l4.2,2.7l2.1,2.4l-1.8,3.1v3.9l-3.5,3.6l-2.3,5.3l-2.5,1.5l-1.2,4.6
		l0.7,2.3l-1.6,2.9l1.4,2.3L610.6,532.4z"/>
	<polygon class="st4" points="577.6,574.8 581.3,576.3 583.3,578.7 586.3,574.8 586.3,573.4 582.9,573.4 	"/>
	<polyline class="st4" points="587.3,562.7 590.7,562.7 595.2,562.7 599.1,562.7 604.1,561 606,557.4 608.8,557.4 611.5,552.3 
		611.5,549.6 	"/>
	<polygon class="st4" points="601.8,532.4 601.8,536.5 599.4,539.2 601.8,540.4 601.8,542.8 600.6,546.7 603.2,546.7 604.6,549.6 
		609.2,547.2 612.7,545.1 610.4,540.4 606,541 604.4,537.9 609.2,536.5 	"/>
	<polygon class="st4" points="601.8,473.2 601.8,477.4 599.4,480 601.8,481.2 601.8,483.7 600.6,487.5 603.2,487.5 604.6,490.5 
		609.2,488 612.7,485.9 610.4,481.2 606,481.8 604.4,478.8 609.2,477.4 	"/>
	<polyline class="st4" points="578.7,579.9 575.9,583.3 578.7,587.2 	"/>
	<polyline class="st4" points="582,581.8 583.1,587.2 587.3,586.2 590.3,584.5 591.4,589.1 	"/>
	<line class="st4" x1="584.3" y1="591.5" x2="584.3" y2="598.8"/>
	<polyline class="st4" points="607.6,581.8 610.6,578.7 607.6,574.8 610.6,573.4 	"/>
	<polyline class="st4" points="538.3,465.2 544.8,468.8 549.1,468.8 554.7,463 558.4,463 567.4,458.4 	"/>
	<polyline class="st4" points="602.2,442.8 608.6,446.4 613,446.4 618.6,440.6 622.3,440.6 631.3,436 	"/>
	<polygon class="st4" points="568.8,458.4 573.9,460.4 580.3,460.4 582,463.6 580.3,466.7 582,467.6 586,461.8 589.1,462.3 
		591.4,460.8 594,457.2 588.2,458.4 591.4,454.8 595.2,454.8 598.1,452.8 599.4,451.1 596.3,446.3 596.5,451.1 594,452.4 
		591.4,448.2 587.3,451.1 584.1,452.6 577.6,451.1 574.6,453.3 572.9,451.1 572.5,455.5 	"/>
	<polygon class="st4" points="539.4,568.3 544.5,570.2 550.9,570.2 552.6,573.5 550.9,576.5 552.6,577.5 556.6,571.7 559.7,572.1 
		562,570.7 564.6,567.1 558.8,568.3 562,564.6 565.8,564.6 568.7,562.7 570,561 566.9,556.1 567.1,561 564.6,562.2 562,558.1 
		557.9,561 554.7,562.4 548.2,561 545.2,563.2 543.5,561 543.1,565.4 	"/>
	<polygon class="st4" points="521.7,411.9 524.4,419.9 524.4,423.3 526.7,417.6 528.1,421.8 529.7,419.9 528.6,416.4 529.7,414.8 	
		"/>
	<polygon class="st4" points="531.6,428.8 531.6,433.7 535.5,432.2 538.3,433.7 541.1,431.3 	"/>
	<line class="st4" x1="447.3" y1="439.8" x2="455.1" y2="441.2"/>
	<path class="st4" d="M462.3,428.8c0,0,7.6,2.7,6.2,6"/>
	<polygon class="st3" points="497.9,408.8 497.2,406.8 497.5,405.5 494.2,401.3 495.5,400.5 503.1,406 509.1,404.3 519.6,400.5 
		527.9,393 533.7,398.1 531.9,406.4 515.3,412.6 502.3,414.2 	"/>
	<polygon class="st3" points="527.8,389.5 526.4,387.9 524.3,385.1 522.1,380.5 523.6,376.3 531.6,374.7 528.3,369.2 535.9,361.4 
		539.8,363.2 542.6,364.3 558.4,385 557.8,391 548.5,391 	"/>
	<polyline class="st3" points="559,385.4 559.4,385.4 564.2,385.4 567.2,383.7 573.7,386 578,382.8 581.7,384.7 587,384.7 
		585.7,390.2 584.5,393.8 558.7,395.9 	"/>
	<polygon class="st3" points="586,393.9 586.7,391.9 588.2,384.9 594.7,386.6 598.1,389.7 599.3,390.5 603.6,390.5 606.6,394.3 
		608.6,396.3 610.2,397.7 610.2,398.1 605.2,404.8 	"/>
	<path class="st3" d="M607.8,403.2l3.6-4.9c0,0,1.2,0.3,1.2-0.4c0-0.6,4.2,11.1,4.2,11.1l4.8,10.9l4,2.3v4.8l4.3,6.7l0.3,0.4l2.7,2
		l3.8,2.8l1.8,1l1.5-1.9l3.1,2.3v1.6l3.3,1l1.4,0.3h2.6l2.3,0.8l2.6,1.4l0.9,0.4l2.7,0.8l2.5,0.7l3.4,0.8l2.2,1.6l3.7-2.6l1.8,5.2
		h-2l-2.5-1.8l-1.6,1.8l-2.7-1.9l-2,4.9l-33-8.4l-18.9-30.5L607.8,403.2z"/>
	<polygon class="st3" points="671.8,451.9 672.6,452.3 674.1,454.2 674.1,457 672.8,457.6 672.3,456.2 673.3,455.3 673.2,454.8 
		671.5,453.3 668.5,450.8 	"/>
	<polygon class="st3" points="674.5,458 676.3,459.4 678.1,458.4 678.1,466.2 679.5,466.8 677.6,467.7 676.2,466.7 677,465.6 
		677,465.3 675,465.5 672.9,460.7 672.6,459.5 	"/>
	<text transform="matrix(1.0697 0 0 1 462.2724 370.4254)" class="st5 st6 st7">Venezuela</text>
	<text transform="matrix(1.0697 0 0 1 386.12 397.9366)" class="st5 st6 st7">Colombia</text>
	<text transform="matrix(1.0697 0 0 1 349.3944 458.4225)" class="st5 st6 st7">Ecuador</text>
	<text transform="matrix(1.0697 0 0 1 482.1806 603.2501)" class="st5 st6 st7">Bolivia</text>
	<text transform="matrix(1.0697 0 0 1 390.8837 551.463)" class="st5 st6 st7">Peru</text>
	<text transform="matrix(1.0697 0 0 1 539.6747 493.8253)" class="st5 st6 st7">Brazil</text>
	<text transform="matrix(1.0697 0 0 1 550.2255 403.608)" class="st5 st6 st7">Suriname</text>
	<text transform="matrix(1.0697 0 0 1 591.4296 382.7667)"><tspan x="0" y="0" class="st5 st6 st7">French </tspan><tspan x="0" y="12.8" class="st5 st6 st7">Guiana</tspan></text>
	<text transform="matrix(1.0697 0 0 1 525.6962 385.3536)" class="st5 st6 st7">Guiana</text>
</g>
<g>
	<g>
		<g>
			<path class="st1" d="M599.1,284.3l-0.7-14l0-1.7l-1-1.7l1.6-2.1l-0.8-4.6l0-3.6l-0.8-2.7l-0.8-3.4l-1.7-2.7c0,0-3.8-6.7-8.1-5.5
				c-3.6-2.5-12.9-8-11.9-5.8c-0.5,1.2-1.7-3.7-1.7-3.7l-2.1-1.1l-2.1-2.5l-1.1-1.7l0.8-2.5l-3.1-3.8l-2.8-5.2l-0.8-3.3l-4.1-3.3
				c0,0-9.4-22.8-13.9-20.7c-1.1-5-2.8-10.4-2.8-10.4l1-4.3l0.8-4.6l2-5.7l-1.8-3.4l0.8-4.6l0.5-2.5l-1.5-1.1l0.5-2.9l2.8-1.9
				l4.6-4.4c0,0,10.2-16.8,8.5-18c-0.3-3.1-3-13.2-5.7-13.2c-1.3-3.4-2.3-6.5-2.3-6.5l-3.1-2.3c0,0-2.3,0.2-2.1,3.4
				c-1-0.4-1.6-0.6-1.6-0.6L544,109c0,0,1,2.1-1.6,3.4c-1.3,1.5-2.1,1.7-2.1,1.7s-0.3-4-2.6-3.4c-2.3-1.1-2.3-2.3-2.3-2.3v-2.7
				l1.6,0.2l1,0.4l1.8-1l1.3-1.1l1.6-0.4h1.5l2.1-3.1h3.8h3.4c0,0,5.6,5,4.4,6.5c2-3.3,4.1-5.4,4.1-5.4l1.1-2.3h2l0.3-3.3l1-2.9
				l2.6-3.1l1.6-2.5v-2.7l4.8,1.3l2.5-1.3h1.6l3-3.8h1.1h1.6l0.4,1.2l2,6l1.3-0.2l0.8-5.4c0,0,11.8-4.2,10.5,1.9
				c0.1,1.5,0.1,2.7,0.1,2.7l6.6,0.4l2.3-2.1l0.8,0.4v2.3l4.9,0.4l8.2,0.4c0,0,1.3-1.9,2.3-1.3c1,0.6,2.6-1,2.6-1l3.1-0.8
				c0,0,2.3,1.5,2.1,2.5c-0.2,1,2.8,5.9,2.8,5.9s1.3,4.2,5.3,4.4c1.3,1,3.8,1.9,3.8,1.9l3.4,4.6l5.1,7.8h3l1.6-1l1.6,0.6l1.8,0.8
				l2.3-1.9l2,1.1h3.1l3.8,1.1l1.5,1.5l1,0.8h2.3c0,0,3.9,5.9,4.8,4.4c1.3,4.2,3.1,9,3.1,9l1.6,4l2.1,1.3v2.9l2.5,4.2l3.4,2.9l1,0.6
				l0.8-1.1l1.6,1.3v1l2.3,0.8h1.6l1.5,0.6l1.5,1l2.5,0.8l2.3,0.6l1.1,1l2-1.5l1,3.1l0.8,1.1v2.1l1.1,1l1-0.6v3.3v1.3l2.1,1l2.6-0.2
				l3.1,0.8l3.9-0.6l1.5-0.2l1.5,0.6l2.1-0.8l2,1.1l2.3,0.2l2.1,2.5l1.5,1l3.1,1.1l1.1-2.3l1.1,0.2c0,0,1,2.9-1.5,3.6
				c1.7,1.7,1.7,3.6,1.7,3.6l3.3,1.9l3.3,23.4c0,0,4.6,0.4,3.9,3.1c1.1,1.3,4.4,14,0.1,18.9c-1.2,1-4.3,1.9-4.3,1.9
				s2.3-16.9-8.5-10.6c0.2,1.5-1,2.5-1,2.5l0.7,1.1l-0.3,1.3l-1,1.3c0,0-7.5,7.7-5.7,14c0.2,2.5-0.5,5.2-0.5,5.2l-0.5,4l-0.8,2.5
				l-2,5l-1,3.4c0,0,1.6,12.1-5.6,11.9c-0.5,1.7-1.3,4.2-1.3,4.2l-2.3,1.7l-1,2.1c0,0-12.5,1.9-13.6,4.6c-1-0.8-4.6,1-4.6,1
				l-4.1,1.5h-1.5l-3.4,6.9L599.1,284.3z"/>
			<path class="st2" d="M667.3,285.5l1.3-4.9v-4.2h-1.3l-2.8,0.8c0,0,0.3-11.9-4.8-9.8c-4.8-0.3-7.2-1.7-7.2-1.7v-4.6l-1.1-4.6
				c0,0,4.6-0.4,1.1-5.4c1.3-2.9,1.6-6.1,1.6-6.1l-1.5-4.8c0,0-3.1-2.7-1.3-5.7c-3.1,0-8.2,0-8.2,0l-2.6-5.7l1.5-3.8
				c0,0-2-6.7-8.7-5.5c-1.8-2.7-4.3-3.6-4.3-3.6l-1.3-1.3h-5.1l-4.3-4.4l-2-9.4h-2.1h-3l-4.9,4.6l-3.1,1v1.9l-3.8-0.8l-3.3,0.4
				l-2.5,0.8c0,0-1.8-5.4-0.8-10.9c-2.1,2.9-4.3,5.7-4.3,5.7l-2.1-0.4l-0.8,0.8l-2.1-2.7l-1.6,0.8l-1.5-2.3l0.8-1.9l-2.8-2.3
				l-1.5-3.1v-2.3v-2.5v-1.9l2.3-1l-0.3-4.6l2.5-2.5l1.5-2.5l2.5-2.3h3.1l1.6-2.3h2.6c0,0,3.6-2.3-1.3-2.7c0-2.1,4.8-11.5-8-5.4
				c-3.6,0-4.8-2-4.8-2l-1.6-2.4l-4.1-4.4l-2.6-2.5l-2.8,0.8H565l-1.5-2.1h-3.3l-3.4-2.1l-4.8-1.5l-1.3-3.3"/>
			<path class="st2" d="M567.6,151.9l1,3.4l-3,6.5l-3.8,3.4l-4.4,4l-3.1,4.4l-1.8,4.7l-1,1.8l-2.3-1.8c0,0-4.4-0.3-4.4-1.4
				c0-1.1,1-3.3,1-3.3l-1-1.3l-2.3-0.9"/>
			<path class="st2" d="M608.3,283.5V281l2.8-1l1.3-1.7c0,0,2.8-5.7-2.1-5.2c-0.7-3.1-3.9-18.6-4.2-15.1c1.8,0.4-0.7-4.4-0.7-4.4
				l-2.1-1.7l-1-3.1v-1.9l-2.8-2.5l2.1-4.4l1.8-2.9l-2.6-4.2l-0.7-4.4l2.8-3.6l-2-7.1l1.1-2.5l-3.4-6.7v-1.2"/>
			<polyline class="st2" points="595.9,249.7 598.8,248.7 599.4,245.5 			"/>
			<polyline class="st2" points="612.1,273.3 616,268.8 617.3,267.2 618.9,268.4 621.1,267.2 622.2,267.2 624.2,271.1 625.7,270.3 
				627.6,268.2 630.9,267.2 635.7,271.8 639.9,276.4 643.7,276.4 646.7,278.1 648,280.2 652.9,283.5 655.2,285.3 			"/>
			<polyline class="st2" points="630.9,267.2 632.7,265.9 633.7,261.1 633.7,257.9 636.5,253.1 637.7,252.1 641.6,253.1 
				643.6,252.1 645.9,252.1 649.3,252.1 651.4,256.5 			"/>
			<path class="st3" d="M640.5,227.8l-0.8,2.1v2.1l-5.9,4.4l-4.1,7.7h-1.3c0,0-3.1,2.1-2.6,4.8c-0.1,2.3-1.1,3.7-1.1,3.7
				s-3.8-4.8-5.4-3.3c-2.3-0.4-6.4-5.5-6.4-5.5l-1.6-3.5l1-1.9l-1.7-2.5l-1.4,1.3l-1.1-0.2l-1.2-1l-1.3,1l-0.8-2.1l1-1.3l-4.6-5.7
				l-0.8,1.3l-2.8-1.3h-2l-1.6-0.8l-1.3-1.9l-1,1.5c0,0-2.8-0.6-1.8-4c-1.3,0-2.6-2.1-2.6-2.1l-3.3-1.4l-2.5-0.9l-1.8,2.5v2.3
				l-1.3-3.9l-0.8-2.8v-2.5h-1c0,0-0.3,2.1-0.8,2.3s-0.8,1.7-0.8,1.7l0.8,2.3l-0.8,0.6l-1.8-1.6v-3.2l-3.6-2.1l1.6-1.4l2.8,1.1
				l0.3-1.1l-2.1-7.6l-0.8,1.9c0,0,0.8,7.1-1.8,4.4c-2.1-3.4-3.4-6.3-3.4-6.3v-5.2v-3.3h0.8c0,0-5.1-5.7-2.1-6.3c3-0.6,3-0.6,3-0.6
				c-1.5,0.4-0.9-4.4-3.9-3.6c-2.5-0.8-2.4-2.6-2.4-2.6s-2,1.6-6.7-3.6c-1.7,1.8-3.2,1.4-3.2,1.4l1.3-1.4l0.3-2.3l-1.6-1.1l2.6-3.6
				l-0.3-4l1.8-3.4l0.7-2.9l-1.4-5.5h2.5l1-5.9l1.8-3.1l3.1-3.3l1.5,1.5l0.7-1.5l1.1-1.7l1.5,1.1l2.8-1.1l0.7-2.9l0.3-1.9l-1.1-2.1
				l1.5-2.7l1.5,1.7l0.7,2.9l-0.5,4.6l0.2,1l1.5-0.8l-0.3-3.3l0.7-4.2l1-2.9h2l1.3,1.5v1.5l1.3,0.4l0.2,1.7l-1.8,1l0.7,1l3-1.3
				l1.6-4.2l1-1.5l2.6-1.3l1.5-1h1.8l1.8-3.1h5.1l4.8-4.2l2-3.6L605,125l0.7,3.1l1.8-0.2l1.3,0.8l1.6,1.1l1.1,1l1.1,0.4l0.3-1.3
				l1,2.1l1,0.8c0,0,2.1-5.2,2.6-1.9c0.5,3.3,0.5,3.3,0.5,3.3l1.1,1l1-2.9l-0.3-3.1l-0.8-1.3l1.3-1l1-0.2l3.8,2.7l3-0.8l5.3-2.1
				l4.4-4.4v-2.1l-0.3-3.3L637,112h3.4L639,109l4.2-4.2l2.9,1.3l8.5,12.4l3.6-0.4l1-0.6l3.4,1.3l2.3-1.9l2,1.1h3.1l3.8,1.1l2.5,2.3
				h2.3l3.8,4.4l1,0l4.8,13l2.1,1.3v2.9l1.8,3.1l0.7,1.1l4.4,3.4l0.8-1.1l1.6,1.3v1l2.3,0.8h1.6l3,1.5l4.8,1.3l1.1,1l2-1.5l1,3.1
				l0.8,1.1v2.1l1.1,1l1-0.6v4.6v1.5v18.6l-2.5,1.3l-0.5,1.9l-3.6,1.3l-1.6,5.5l-1,1.5l1.1,2.7l-1,4.4l1.5,0.2l0.3-1.5l0.8,1.7
				l-2.6,1.7l-2.1,2.5l-0.5,1l3,1.6l-1.3,1.2l0.2,1.9l0.8,0.6l-0.7,1.1l0.5,1.9l-0.3,1.6l-1.8-0.6l-1.6,1l-1.1,0.6l-1.6-0.2v1.3
				l-2.8-1.3l-1.3,1l-1.8-3.3l-2.1,1l-0.2,2.3l-4.3-2.1l-0.3-1.2l0.5-1.5l-1.3,0.4l-0.5,1.9l-0.8,2.9l-0.7,3.3l-0.7,3.6
				c0,0-0.3,2.7-2.5,3.3c-0.8,1.7-1.5,3.6-1.5,3.6h-1.6l-1.8,2.1l-1.6,4l-1.5,3.3l1.5,2.3v1l-1.8-1l-1.3,0.8l-1.3-1.3l1.5-1.7
				l-1.1-1.1l-1.8,2.7l-2-1.5l-1.8,1.7l-5.3-3.4l-2.5,0.6l-3.3,3.6l-2.6-1.7l0.7-1.4l-2.5-1.9v-4.1h-8.2l-2.6-5.7l1.5-3.8
				L640.5,227.8z"/>
			<path class="st2" d="M593.8,168.3l2.1-5.3v-3.3l1-4.2l-0.8-3.6L593,148v-1.7l2-1.1c0,0,5.4-2.5,0-4c-0.8-1-0.8-3.6-0.8-3.6h2.1
				h2.5l0.8-0.8h2.8l1.8-1.3h0.8h1.5v-1.3l-2-2.7l1.1-2.9v-1.9l-2.5-2.5l-0.2-6.3l2-5.5h-3.3l-3.8,1.1l-0.3,1l-4.6-3.1l-3.4-1.3
				l-3.6,1.1l-3.6-2.5l-1.5-3.3l-2.5-4.8l-2.5-2.1l1.6-1.7V91l1.8-1.1l3.8-4l2.5-3.2"/>
			<polyline class="st2" points="606.5,135.4 608.3,140.4 611.7,141.3 614.7,141.3 616.6,139.2 618.8,139.2 620.1,138.4 
				621.7,135.4 623.4,134.2 624.5,132.9 623.7,131.4 622.1,131.4 620.6,129.7 620.9,125.5 619.1,123 620.3,122.2 622.9,124.3 
				624.5,125.5 628,124.3 632.9,122.2 637.8,117.2 640.3,116.3 641.3,120.9 642.9,121.4 641.3,127 641.6,131.6 643.9,136.7 
				646.8,138.5 648.6,136.9 651.6,135.8 655.2,133.5 655.2,128.8 652.4,125.5 650,121.6 650,119.1 651.9,117.6 653.7,118 
				653.9,113.6 			"/>
			<polyline class="st2" points="637.8,117.2 635.4,113.6 634.2,110.7 635,108 639.1,107.1 637.5,104 641.6,99.2 			"/>
			<polyline class="st2" points="655.2,131 657.5,134.1 660.8,134.1 659.8,131 664.4,129.3 666.7,131.7 669.8,132.7 675.4,132.5 
				677.5,127.5 681.7,121.1 			"/>
			<polyline class="st2" points="669.3,113.2 668.5,117.2 667.5,119.9 670.1,125.5 667.5,131.9 			"/>
			<path class="st2" d="M667.3,285.5l1.3-4.9v-4.2h-1.3l-2.8,0.8c0,0,0.3-11.9-4.8-9.8c-4.8-0.3-7.2-1.7-7.2-1.7v-4.6l-1.1-4.6
				c0,0,4.6-0.4,1.1-5.4c1.3-2.9,1.6-6.1,1.6-6.1l-1.5-4.8c0,0-3.1-2.7-1.3-5.7c-3.1,0-8.2,0-8.2,0l-2.6-5.7l1.5-3.8
				c0,0-2-6.7-8.7-5.5c-1.8-2.7-4.3-3.6-4.3-3.6l-1.3-1.3h-5.1l-4.3-4.4l-2-9.4h-2.1h-3l-4.9,4.6l-3.1,1v1.9l-3.8-0.8l-3.3,0.4
				l-2.5,0.8c0,0-1.8-5.4-0.8-10.9c-2.1,2.9-4.3,5.7-4.3,5.7l-2.1-0.4l-0.8,0.8l-2.1-2.7l-1.6,0.8l-1.5-2.3l0.8-1.9l-2.8-2.3
				l-1.5-3.1v-2.3v-2.5v-1.9l2.3-1l-0.3-4.6l2.5-2.5l1.5-2.5l2.5-2.3h3.1l1.6-2.3h2.6c0,0,3.6-2.3-1.3-2.7c0-2.1,4.8-11.5-8-5.4
				c-3.6,0-4.8-2-4.8-2l-1.6-2.4l-4.1-4.4l-2.6-2.5l-2.8,0.8H565l-1.5-2.1h-3.3l-3.4-2.1l-4.8-1.5l-1.3-3.3"/>
			<path class="st2" d="M567.6,151.9l1,3.4l-3,6.5l-3.8,3.4l-4.4,4l-3.1,4.4l-1.8,4.7l-1,1.8l-2.3-1.8c0,0-4.4-0.3-4.4-1.4
				c0-1.1,1-3.3,1-3.3l-1-1.3l-2.3-0.9"/>
			<path class="st2" d="M608.3,283.5V281l2.8-1l1.3-1.7c0,0,2.8-5.7-2.1-5.2c-0.7-3.1-3.9-18.6-4.2-15.1c1.8,0.4-0.7-4.4-0.7-4.4
				l-2.1-1.7l-1-3.1v-1.9l-2.8-2.5l2.1-4.4l1.8-2.9l-2.6-4.2l-0.7-4.4l2.8-3.6l-2-7.1l1.1-2.5l-3.4-6.7v-1.2"/>
			<polyline class="st2" points="595.9,249.7 598.8,248.7 599.4,245.5 			"/>
			<polyline class="st2" points="612.1,273.3 616,268.8 617.3,267.2 618.9,268.4 621.1,267.2 622.2,267.2 624.2,271.1 625.7,270.3 
				627.6,268.2 630.9,267.2 635.7,271.8 639.9,276.4 643.7,276.4 646.7,278.1 648,280.2 652.9,283.5 655.2,285.3 			"/>
			<polyline class="st2" points="630.9,267.2 632.7,265.9 633.7,261.1 633.7,257.9 636.5,253.1 637.7,252.1 641.6,253.1 
				643.6,252.1 645.9,252.1 649.3,252.1 651.4,256.5 			"/>
			<path class="st2" d="M593.8,168.3l2.1-5.3v-3.3l1-4.2l-0.8-3.6L593,148v-1.7l2-1.1c0,0,5.4-2.5,0-4c-0.8-1-0.8-3.6-0.8-3.6h2.1
				h2.5l0.8-0.8h2.8l1.8-1.3h0.8h1.5v-1.3l-2-2.7l1.1-2.9v-1.9l-2.5-2.5l-0.2-6.3l2-5.5h-3.3l-3.8,1.1l-0.3,1l-4.6-3.1l-3.4-1.3
				l-3.6,1.1l-3.6-2.5l-1.5-3.3l-2.5-4.8l-2.5-2.1l1.6-1.7V91l1.8-1.1l3.8-4l2.5-3.2"/>
			<polyline class="st2" points="606.5,135.4 608.3,140.4 611.7,141.3 614.7,141.3 616.6,139.2 618.8,139.2 620.1,138.4 
				621.7,135.4 623.4,134.2 624.5,132.9 623.7,131.4 622.1,131.4 620.6,129.7 620.9,125.5 619.1,123 620.3,122.2 622.9,124.3 
				624.5,125.5 628,124.3 632.9,122.2 637.8,117.2 640.3,116.3 641.3,120.9 642.9,121.4 641.3,127 641.6,131.6 643.9,136.7 
				646.8,138.5 648.6,136.9 651.6,135.8 655.2,133.5 655.2,128.8 652.4,125.5 650,121.6 650,119.1 651.9,117.6 653.7,118 
				653.9,113.6 			"/>
			<polyline class="st2" points="637.8,117.2 635.4,113.6 634.2,110.7 635,108 639.1,107.1 637.5,104 641.6,99.2 			"/>
			<polyline class="st2" points="655.2,131 657.5,134.1 660.8,134.1 659.8,131 664.4,129.3 666.7,131.7 669.8,132.7 675.4,132.5 
				677.5,127.5 681.7,121.1 			"/>
			<polyline class="st2" points="669.3,113.2 668.5,117.2 667.5,119.9 670.1,125.5 667.5,131.9 			"/>
			<path class="st8" d="M601.7,201.9h-1.8l0.9-1.4l0.9-0.7l-0.9-2.7l2.2,2.4l1.7,0.9l0.6-0.9v-1.6h0.7v1.6l1.5-1.6l1-0.9v-2.7
				l1.7-0.7v1.4l-1.1,2.9v1.1l2.6-1.1l0.9-1.7l0.6-0.3l0.8,1.9h3.1c0,0,2.6-3.7,3.8-2.8c1.1-1.4,2.5-5,2.5-5l0.6,3.9l2-0.4l0.7,2.5
				l2.1,1.9h0.9l-1-1.9l1-1l1.2,1l1.6-1l1.7-0.6l1.5,0.6v1h-2.1l0.2,1.9l-0.4,3.2l-0.2,2l1.7,2.4l1.5,2l2.6,0.6c0,0,0.7,0.6,0,1.3
				s1.6,2.6,0.3,3.9s1,3.2,1,3.2l1.5-2.2l1-0.7l0.6,0.7l-0.9,2.2c0,0,2.1,3.9,1.5,5.3c0.1,1.7,1.5,6.2,5.9,6.5
				c2.2-1,3.2-2.3,3.2-2.3V225l2.1,0.3l1.4-1.4l1-0.7l1.7,0.7v1.3L658,227h-1l-0.2,2.3h-1.5l-1.2-2l-0.1,2.7l-0.5,0.9
				c0,0,1.1,1.9,0.1,2.2c-1.7-0.7-3.6-1.9-3.6-1.9s-2.1-1.7-2.7-0.6c0,1.7-0.5,2.4-0.5,2.4l-1-1.1l-0.4,1.1l-0.5-3l0.4-1.6h-2.1
				l-1.2,2l-0.5-2l0.9-2.9l-1-2.7l1.1,0.6l0.4-2c0,0-1.5-0.2-1.2-3.7c0.2-3.5-1.2,1.3-1.2,1.3l-1.2,0.6l-3.3-4.4l1.4-2l0.5-2.3
				l-1-0.1l-0.5,1.6l-0.2,1.1l-3,2.9c0,0,2.8-1.5-0.7-3.6c-2-1.1-1.1-2-3.9,0.3c-1.2,0.1-2.1-0.1-2.1-0.1l-0.9,1.4l-2.2-1l-0.9-0.9
				l1.6-0.9h2.3l1.4-1.6l2-0.6l1.3-1l-1.3-1.6l-0.8-0.6l-0.1-1.3l-1.4-1.4l-1.8,0.9L623,204l-2.2-1.3l1.4-2.3l0.4-2.6h2.2l-1.1-1.1
				l-2,0.4l0.1,0.7l-1.2,3.2l-0.7,1.7l-1.4-0.7l-0.9,0.7l-0.9-3.3L614,199l-4.3,1.9l-3.2,2.9l-0.5-2.6l-1.3-0.1l-0.5,1.4l-1.6-1
				L601.7,201.9z"/>
			<polygon class="st8" points="636.2,204.3 636.8,205.3 637.7,204.3 636.2,201.9 635.6,200.3 635.6,198.7 634.8,202 635.7,202.7 
				634.8,204.2 635.4,205.3 			"/>
			<path class="st8" d="M646.1,204l-1-2v-1.4l1-0.8l-0.5-1.1l-0.5-1.1l1-1.7h1.2l0.6,2.9l0.6,1.1l1.4-1.7l-1.5-2.3l3,0.4l1,1.3h1
				l0.7-1.7v-1.6l2,0.9l2.2,0.1l1.7,0.6l2.2,0.1l0.6,0.1l-0.5,1.4h-2.2l-3.1-1.6l0.9,1.6h0.7l2.5,1.1l3,0.4l3.1-1.6l-2-5.9L663,190
				l0.5-1.9l-1.7-2.2l0.1-1.3l-0.6-2.2l1.2-3.9l2.7,1.7l1,0.3l-0.7,3.1c0,0,1.5,3.4,0.6,5c1.1,1.6,3.1,5.6,2,6.9s0.6,1.4,0.6,1.4
				l0.6,2.8l2.1-1.1l1.2-1.1c0,0,2.1,3.5-0.6,2.9l-1.5,1.6l-3-2.2l3.2,4.2l1,2l-0.4,1.4h-3.6l-0.1,1.1l1,0.6h1.1l-1.1,1.9
				c0,0,3.8,3,2.2,4.3c-1.7-1.1-4.7,0-4.7,0l-1.6-1.1l1.4-2.7l0.4-2.6l-0.6-1.5l1.8-2.1h1.1v-1.7l-2.2-1.6l-1.4,4.3l0.4,3.7l-1.1,3
				l-0.1,3l-0.9,1.4l-1.4-6l1.5-2.7l-0.7-2l0.9-1.4l-2-2.4l-0.7,2.4c0,0-0.1-3.9-3.3-2.6c-1.4-1.7-1.7-1-5,1.3c-0.1,1.3-0.4,2-0.4,2
				l-2.2-3.4l-0.9,1.1L646.1,204z"/>
			<path class="st8" d="M681.6,200.6l1,1.4l1.8,1l1.4-1l-0.5-2.2h-1.6l-0.9-3.1l0.2-2.3l2.1-1.9h1.2l2,1.1l1,0.4l0.7-0.9l-2.7-2.3
				c0,0,3.7-7.9,4.2-5.5c0.5,2.4,0,3.9,0,3.9l0.2,1.3l1-0.7l1.6,1.1l1,1.6v2.6l0.7,0.4l0.6-1.7v-8.4l2.2-3.4l-0.6-5.5l1.2-0.9
				l0.6,2.7l0.6,1l1-1l1,1.3l0.9-0.3l-0.7-1.3l0.7-1.6l-1.4-0.9l1.4-1h1.2l-0.7-3.4l2.8-2.2l1.2,2.3l1.1-0.3v-2h0.6v2l-0.7,2.4
				l-1.2,2.2l-0.1,0.9l2.8-3l0.6,2.2l1-0.3v-1.7l1.5,0.6l1.1-0.6v1.6v1l2.7,0.4v-5.7l-3-0.7l-0.6-1.1l0.9-4v-1.7l1.6-2.3h-1l-2,1.7
				l-2.1-0.6l-0.4-1.1h2.1l1-1.9l0.1-1.9l1.2-1.1l-2.6,1.1h-3l1.4-2.2l1,1.4l1.6-0.7l0.9-1.4l-2.5-2.2l-0.9,0.9l-1.4-0.9l-1.4,3.7
				l-6.8-1l-1.2,6.7l1.7,1.9l2.5-1l0.5-1.4l-1.5-3l0.4-1.9l1.2,1l2.5-0.1l0.5,1.9v2l-2.5,0.4v1.1l1.8,1l-0.5,1.6l-1.6,1.7l-1.8,0.7
				l-2.2-1.9l-0.5-2.2l-0.7,1l-2.2-0.3v1.1l0.7,1.7l-0.4,0.9l-1.8-2.4l-0.1,1.3l0.7,1.7l-1.2,1.4l-0.6,1.3v-4.2L694,165l0.4-2.7
				l0.7-4.3l2.5,1.6l1.4-2l1.2,0.9l0.2-2.2l-5.3-0.9l-3.4,2.4l-1.1,3.3l2.8-3.2l-0.1,2.7l-1.6,4.2l0.6,3.4l1.4,4.9l-2.6-1.3
				l-1.8,1.3l1.8,1.7l-1.6,1.6l-1.6,1.3l2.2,0.9l-3.1,2.7l-3.9-2.7l1.6-2.4l1-1.3c0,0,1.7-0.7,2.8,1c2.6-1,0.1-4.3,0.1-4.3l-1.4-0.3
				l0.5-2.2l2.3-1.9l0.6-4.7l-0.4-5.3l1.4-2.3l-3,1.6l0.6,3.7l-0.7,2.6l0.6,0.9c0,0-0.1,1.1-2,1.1c-1.6-1.9-3.3-3.2-3.3-3.2
				l-1.7,0.1l-2-2.7l0.9-1.6l-1.5-0.3l-1,1.3l-2.1,1.4l-0.9,1l-2.3,0.7l-1.5,1.6l-1.1,1.4l-2.1,0.6l-3.8,2.4c0,0-2.8-2.9-3.7-1.6
				c-1.8,0.4-2.6,4-2.6,4l0.7,1.3l1.6,2l0.7-1.9l1.2-0.3v-2l2-0.6l1.5,0.4l1.5-1.7l0.9-0.6l3.6,1l1.1-2.3l2.9-1.3l0.4,1l2.6-1
				l1.5,0.4l2.1,1.4l2,2.2v5.7c0,0-4.1-1-3.7,3.7c-2.5,0-3.9-1.4-3.9-1.4l-1.4,1.4l-3.3-2.7l-0.6,0.7l1.5,2l-1.5,2l2.2,1.6l2.5,0.9
				h2.6h2.6l1.1-1.6l2.2,1.6l1.1,1.4l-1,1.8v2.3l-1.8,2.2l-1.2,3.2l-1.4,0.9l-0.6,2.7l0.4,1.4l-0.9,1.7l0.7,1.4L681.6,200.6z"/>
			<polygon class="st3" points="621.5,127.5 621.2,126.3 621.3,125.5 619.6,123 620.3,122.5 624.3,125.8 627.5,124.8 633.1,122.5 
				637.5,118.1 640.6,121.1 639.7,126 630.8,129.7 623.9,130.7 			"/>
			<polygon class="st3" points="637.5,116 636.7,115.1 635.6,113.4 634.5,110.7 635.3,108.2 639.5,107.3 637.7,104 641.8,99.4 
				643.9,100.5 645.4,101.1 653.8,113.4 653.5,116.9 648.5,116.9 			"/>
			<polyline class="st3" points="654.1,113.6 654.3,113.6 656.8,113.6 658.5,112.6 661.9,114 664.2,112.1 666.2,113.2 669,113.2 
				668.3,116.5 667.7,118.6 653.9,119.8 			"/>
			<polygon class="st3" points="668.5,118.7 668.8,117.5 669.7,113.3 673.1,114.3 674.9,116.2 675.6,116.6 677.9,116.6 679.5,118.8 
				680.5,120.1 681.3,120.9 681.3,121.1 678.7,125.1 			"/>
			<path class="st3" d="M680.1,124.2l1.9-2.9c0,0,0.6,0.2,0.6-0.2s2.2,6.6,2.2,6.6l2.5,6.5l2.1,1.3v2.9l2.3,4l0.1,0.3l1.4,1.2l2,1.7
				l1,0.6l0.8-1.1l1.6,1.3v1l1.8,0.6l0.8,0.2h1.4l1.2,0.5l1.4,0.8l0.5,0.3l1.5,0.5l1.3,0.4l1.8,0.5l1.1,1l2-1.5l1,3.1h-1.1l-1.4-1.1
				l-0.9,1.1l-1.4-1.1l-1,2.9l-17.6-5l-10.1-18L680.1,124.2z"/>
			<polygon class="st3" points="714.2,153 714.6,153.2 715.4,154.3 715.4,156 714.7,156.4 714.5,155.5 715,155 714.9,154.7 
				714,153.8 712.4,152.3 			"/>
			<polygon class="st3" points="715.6,156.6 716.6,157.4 717.6,156.8 717.6,161.4 718.3,161.8 717.3,162.3 716.5,161.7 716.9,161.1 
				716.9,160.9 715.9,161 714.8,158.2 714.6,157.5 			"/>
			<text transform="matrix(1 0 0 1 602.5754 104.7486)" class="st5 st6 st9">Venezuela</text>
			<text transform="matrix(1 0 0 1 562.0148 121.0303)" class="st5 st6 st9">Colombia</text>
			<text transform="matrix(1 0 0 1 542.4523 156.8247)" class="st5 st6 st9">Ecuador</text>
			<text transform="matrix(1 0 0 1 613.1789 242.5327)" class="st5 st6 st9">Bolivia</text>
			<text transform="matrix(1 0 0 1 564.551 211.8862)" class="st5 st6 st9">Peru</text>
			<text transform="matrix(1 0 0 1 643.8039 177.7764)" class="st5 st6 st9">Brazil</text>
			<text transform="matrix(1 0 0 1 649.424 124.3858)" class="st5 st6 st9">Suriname</text>
			<text transform="matrix(1 0 0 1 671.3723 112.0523)"><tspan x="0" y="0" class="st5 st6 st9">French </tspan><tspan x="0" y="8.4" class="st5 st6 st9">Guiana</tspan></text>
			<text transform="matrix(1 0 0 1 636.3596 113.583)" class="st5 st6 st9">Guiana</text>
			<rect x="649.4" y="218.8" class="st3" width="13.9" height="11.5"/>
			<polygon class="st10" points="665,174.4 661.6,171.6 658.6,162.3 665,162.3 			"/>
			<rect x="655.2" y="166" class="st10" width="4.1" height="5.5"/>
			<path class="st3" d="M662.5,174H661c-3.1,0-5.6-2.5-5.6-5.6v0c0-3.1,2.5-5.6,5.6-5.6h1.5c3.1,0,5.6,2.5,5.6,5.6v0
				C668.1,171.5,665.6,174,662.5,174z"/>
			<rect x="677.3" y="198.9" class="st3" width="8.9" height="12.8"/>
		</g>
		<polyline class="st8" points="666.8,171.9 670.4,174.3 672.9,174.3 675.9,170.5 678,170.5 683,167.5 		"/>
		<polyline class="st8" points="678.1,152.9 681.7,155.2 684.1,155.2 687.2,151.5 689.2,151.5 694.2,148.5 		"/>
		<polyline class="st8" points="645,191 648.5,193.4 651,193.4 654.1,189.6 656.1,189.6 661.1,186.6 		"/>
	</g>
	<polygon class="st8" points="672.6,184.4 672.6,187.1 671.2,188.8 672.6,189.6 672.6,191.2 671.9,193.7 673.3,193.7 674.1,195.6 
		676.7,194 678.6,192.6 677.3,189.6 674.9,190 674,188 676.7,187.1 	"/>
</g>
<g>
	<g>
		<path class="st1" d="M366.3,284.3l-0.7-14l0-1.7l-1-1.7l1.6-2.1l-0.8-4.6l0-3.6l-0.8-2.7l-0.8-3.4l-1.7-2.7c0,0-3.8-6.7-8.1-5.5
			c-3.6-2.5-12.9-8-11.9-5.8c-0.5,1.2-1.7-3.7-1.7-3.7l-2.1-1.1l-2.1-2.5l-1.1-1.7l0.8-2.5l-3.1-3.8l-2.8,15.3l-0.8-3.3L325,230
			c0,0-9.4-22.8-13.9-20.7c-1.1-5-2.8-10.4-2.8-10.4l1-4.3l0.8-4.6l2-5.7l-1.8-3.4l0.8-4.6l0.5-2.5l-1.5-1.1l0.5-2.9l2.8-1.9
			l4.6-4.4c0,0,10.2-16.8,8.5-18c-0.3-3.1-3-13.2-5.7-13.2c-1.3-3.4-2.3-6.5-2.3-6.5l-3.1-2.3c0,0-2.3,0.2-2.1,3.4
			c-1-0.4-1.6-0.6-1.6-0.6l-0.3,3.3c0,0,1,2.1-1.6,3.4c-1.3,1.5-2.1,1.7-2.1,1.7s-0.3-4-2.6-3.4c-2.3-1.1-2.3-2.3-2.3-2.3v-2.7
			l1.6,0.2l1,0.4l1.8-1l1.3-1.1l1.6-0.4h1.5l2.1-3.1h3.8h3.4c0,0,5.6,5,4.4,6.5c2-3.3,4.1-5.4,4.1-5.4l1.1-2.3l2-20.5l0.3-3.3l1-2.9
			l2.6-3.1l1.6-2.5v-2.7l4.8,1.3l2.5-1.3h1.6l3-3.8h1.1h1.6l0.4,1.2l2,6l1.3-0.2l0.8-5.4c0,0,11.8-4.2,10.5,1.9
			c0.1,1.5,0.1,2.7,0.1,2.7l6.6,0.4l2.3-2.1l0.8,0.4v2.3l4.9,0.4l8.2,0.4c0,0,1.3-1.9,2.3-1.3c1,0.6,2.6-1,2.6-1l3.1-0.8
			c0,0,2.3,1.5,2.1,2.5s2.8,5.9,2.8,5.9s1.3,4.2,5.3,4.4c1.3,1,3.8,1.9,3.8,1.9l3.4,4.6l5.1,7.8h3l1.6-1l1.6,0.6l1.8,0.8l2.3-1.9
			l2,1.1h3.1l3.8,1.1l1.5,1.5l1,0.8h2.3c0,0,3.9,5.9,4.8,4.4c1.3,4.2,3.1,9,3.1,9l1.6,4l2.1,1.3v2.9l2.5,4.2l3.4,2.9l1,0.6l0.8-1.1
			l1.6,1.3v1l2.3,0.8h1.6l1.5,0.6l1.5,1l2.5,0.8l2.3,0.6l1.1,1l2-1.5l1,3.1l0.8,1.1v2.1l1.1,1l1-0.6v3.3v1.3l2.1,1l2.6-0.2l3.1,0.8
			l3.9-0.6l1.5-0.2l1.5,0.6l2.1-0.8l2,1.1l2.3,0.2l2.1,2.5l1.5,1l3.1,1.1l1.1-2.3l1.1,0.2c0,0,1,2.9-1.5,3.6
			c1.7,1.7,1.7,3.6,1.7,3.6l3.3,1.9l3.3,1.5c0,0,4.6,0.4,3.9,3.1c1.1,1.3,4.4,14,0.1,18.9c-1.2,1-4.3,1.9-4.3,1.9s2.3,5-8.5,11.3
			c0.2,1.5-1,2.5-1,2.5l0.7,1.1l-0.3,1.3l-1,1.3c0,0-7.5,7.7-5.7,14c0.2,2.5-0.5,5.2-0.5,5.2l-0.5,4l-0.8,2.5l-2,5l-1,3.4
			c0,0,1.6,12.1-5.6,11.9c-0.5,1.7-1.3,4.2-1.3,4.2l-2.3,1.7l-1,2.1c0,0-12.5,1.9-13.6,4.6c-1-0.8-4.6,1-4.6,1l-4.1,1.5h-1.5
			l-3.4,6.9L366.3,284.3z"/>
		<path class="st2" d="M434.6,285.5l1.3-4.9v-4.2h-1.3l-2.8,0.8c0,0,0.3-11.9-4.8-9.8c-4.8-0.3-7.2-1.7-7.2-1.7v-4.6l-1.1-4.6
			c0,0,4.6-0.4,1.1-5.4c1.3-2.9,1.6-6.1,1.6-6.1l-1.5-4.8c0,0-3.1-2.7-1.3-5.7c-3.1,0-8.2,0-8.2,0l-2.6-5.7l1.5-3.8
			c0,0-2-6.7-8.7-5.5c-1.8-2.7-4.3-3.6-4.3-3.6l-1.3-1.3H390l-4.3-4.4l-2-9.4h-2.1h-3l-4.9,4.6l-3.1,1v1.9l-3.8-0.8l-3.3,0.4
			l-2.5,0.8c0,0-1.8-5.4-0.8-10.9c-2.1,2.9-4.3,5.7-4.3,5.7l-2.1-0.4l-0.8,0.8l-2.1-2.7l-1.6,0.8l-1.5-2.3l0.8-1.9l-2.8-2.3
			l-1.5-3.1v-2.3v-2.5v-1.9l2.3-1l-0.3-4.6l2.5-2.5l1.5-2.5l2.5-2.3h3.1l1.6-2.3h2.6c0,0,3.6-2.3-1.3-2.7c0-2.1,4.8-11.5-8-5.4
			c-3.6,0-4.8-2-4.8-2l-1.6-2.4l-4.1-4.4l-2.6-2.5l-2.8,0.8h-2.6l-1.5,18.4h-3.3l-3.4-2.1l-4.8-1.5l-1.3-3.3"/>
		<path class="st2" d="M334.8,151.9l1,3.4l-3,6.5l-3.8,24l-4.4,4l-3.1,4.4l-1.8,4.7l-1,1.8l-2.3-1.8c0,0-4.4-0.3-4.4-1.4
			c0-1.1,1-3.3,1-3.3l-1-1.3l-2.3-0.9"/>
		<path class="st2" d="M375.5,283.5V281l2.8-1l1.3-1.7c0,0,2.8-5.7-2.1-5.2c-0.7-3.1-3.9-18.6-4.2-15.1c1.8,0.4-0.7-4.4-0.7-4.4
			l-2.1-1.7l-1-3.1v-1.9l-2.8-2.5l2.1-4.4l1.8-2.9l-2.6-4.2l-0.7-4.4l2.8-3.6l-2-7.1l1.1-2.5l-3.4-6.7v-1.2"/>
		<polyline class="st2" points="363.2,249.7 366,248.7 366.7,245.5 		"/>
		<polyline class="st2" points="379.4,273.3 383.2,268.8 384.5,267.2 386.2,268.4 388.3,267.2 389.5,267.2 391.4,271.1 392.9,270.3 
			394.9,268.2 398.2,267.2 402.9,271.8 407.2,276.4 411,276.4 413.9,278.1 415.2,280.2 420.2,283.5 422.4,285.3 		"/>
		<polyline class="st2" points="398.2,267.2 400,265.9 400.9,261.1 400.9,257.9 403.7,253.1 404.9,252.1 408.8,253.1 410.8,252.1 
			413.1,252.1 416.5,252.1 418.7,256.5 		"/>
		<path class="st3" d="M407.7,227.8l-0.8,2.1v2.1l-5.9,4.4l-4.1,7.7h-1.3c0,0-3.1,2.1-2.6,4.8c-0.1,2.3-1.1,3.7-1.1,3.7
			s-3.8-4.8-5.4-3.3c-2.3-0.4-6.4-5.5-6.4-5.5l-1.6-3.5l1-1.9l-1.7-2.5l-1.4,1.3l-1.1-0.2l-1.2-1l-1.3,1l-0.8-2.1l1-1.3l-4.6-5.7
			l-0.8,1.3l-2.8-1.3h-2L361,227l-1.3-1.9l-1,1.5c0,0-2.8-0.6-1.8-4c-1.3,0-2.6-2.1-2.6-2.1l-3.3-1.4l-2.5-0.9l-1.8,2.5v2.3
			l-1.3-3.9l-0.8-2.8v-2.5h-1c0,0-0.3,2.1-0.8,2.3s-0.8,1.7-0.8,1.7l0.8,2.3l-0.8,0.6l-1.8-1.6v-3.2l-3.6-2.1l1.6-1.4l2.8,1.1
			l0.3-1.1l-2.1-7.6l-0.8,1.9c0,0,0.8,7.1-1.8,4.4c-2.1-3.4-3.4-6.3-3.4-6.3v-5.2v-3.3h0.8c0,0-5.1-5.7-2.1-6.3c3-0.6,3-0.6,3-0.6
			c-1.5,0.4-0.9,16.1-3.9,16.9c-2.5-0.8-2.4-2.6-2.4-2.6s-2,1.6-6.7-3.6c-1.7,1.8-3.2,1.4-3.2,1.4l1.3-1.4l0.3-2.3l-1.6-1.1l2.6-3.6
			l-0.3-4l1.8-3.4l0.7-2.9l-1.4-5.5h2.5l1-5.9l1.8-3.1l3.1-3.3l1.5-19l0.7-1.5l1.1-1.7l1.5,1.1l2.8-1.1l0.7-2.9l0.3-1.9l-1.1-2.1
			l1.5-2.7l1.5,1.7l0.7,2.9l-0.5,4.6l0.2,1l1.5-0.8l-0.3-3.3l0.7-4.2l1-2.9h2l1.3,1.5v1.5l1.3,0.4l0.2,1.7l-1.8,1l0.7,1l3-1.3
			l1.6-4.2l1-1.5l2.6-1.3l1.5-1h1.8l1.8-3.1h5.1l4.8-4.2l2-3.6l-0.3,5.9l0.7,3.1l1.8-0.2l1.3,0.8l1.6,1.1l1.1,1l1.1,0.4l0.3-1.3
			l1,2.1l1,0.8c0,0,2.1-5.2,2.6-1.9s0.5,3.3,0.5,3.3l1.1,1l1-2.9L387,129l-0.8-1.3l1.3-1l1-0.2l3.8,2.7l3-0.8l5.3-2.1l4.4-4.4v-2.1
			l-0.3-3.3l-0.3-4.6h3.4l-1.5-3.1l4.2-4.2l2.9,1.3l8.5,12.4l3.6-0.4l1-0.6l3.4,1.3l2.3-1.9l2,1.1h3.1l3.8,1.1l2.5,2.3h2.3l3.8,4.4
			l1,0l4.8,13l2.1,1.3v2.9l1.8,3.1l0.7,1.1l4.4,3.4l0.8-1.1l1.6,1.3v1l2.3,0.8h1.6l3,1.5l4.8,1.3l1.1,1l2-1.5l1,3.1l0.8,1.1v2.1
			l1.1,1l1-0.6v4.6v1.5v18.6l-2.5,1.3l-0.5,1.9l-3.6,1.3l-1.6,5.5l-1,1.5l1.1,2.7l-1,4.4l1.5,0.2l0.3-1.5l0.8,1.7l-2.6,1.7l-2.1,2.5
			l-0.5,1l3,1.6l-1.3,1.2l0.2,1.9l0.8,0.6l-0.7,1.1l0.5,1.9l-0.3,1.6l-1.8-0.6l-1.6,1l-1.1,0.6l-1.6-0.2v1.3l-2.8-1.3l-1.3,1
			l-1.8-3.3l-2.1,1l-0.2,2.3l-4.3-2.1l-0.3-1.2l0.5-1.5l-1.3,0.4l-0.5,1.9l-0.8,2.9l-0.7,3.3l-0.7,3.6c0,0-0.3,2.7-2.5,3.3
			c-0.8,1.7-1.5,3.6-1.5,3.6h-1.6l-1.8,2.1l-1.6,4L443,246l1.5,2.3v1l-1.8-1l-1.3,0.8l-1.3-1.3l1.5-1.7l-1.1-1.1l-1.8,2.7l-2-1.5
			l-1.8,1.7l-5.3-3.4l-2.5,0.6l-3.3,3.6l-2.6-1.7l0.7-1.4l-2.5-1.9v-4.1h-8.2l-2.6-5.7l1.5-3.8L407.7,227.8z"/>
		<path class="st2" d="M361,168.3l2.1-5.3v-3.3l1-4.2l-0.8-3.6l-3.1-3.8v-1.7l2-1.1c0,0,5.4-2.5,0-4c-0.8-1-0.8-3.6-0.8-3.6h2.1h2.5
			l0.8-0.8h2.8l1.8-1.3h0.8h1.5v-1.3l-2-2.7l1.1-2.9v-1.9l-2.5-2.5l-0.2-6.3l2-5.5H369l-3.8,1.1l-0.3,1l-4.6-3.1l-3.4-1.3l-3.6,1.1
			l-3.6-2.5l-1.5-3.3l-2.5-4.8l-2.5-2.1l1.6-1.7V91l1.8-1.1l3.8-4l2.5-3.2"/>
		<polyline class="st2" points="373.7,135.4 375.5,140.4 379,141.3 381.9,141.3 383.9,139.2 386,139.2 387.3,138.4 389,135.4 
			390.6,134.2 391.8,132.9 390.9,131.4 389.3,131.4 387.8,129.7 388.2,125.5 386.4,123 387.5,122.2 390.1,124.3 391.8,125.5 
			395.2,124.3 400.1,122.2 405.1,117.2 407.5,116.3 408.5,120.9 410.1,121.4 408.5,127 408.8,131.6 411.1,136.7 414.1,138.5 
			415.9,136.9 418.8,135.8 422.5,133.5 422.5,128.8 419.7,125.5 417.2,121.6 417.2,119.1 419.2,117.6 421,118 421.1,113.6 		"/>
		<polyline class="st2" points="405.1,117.2 402.6,113.6 401.4,110.7 402.3,108 406.4,107.1 404.7,104 408.8,99.2 		"/>
		<polyline class="st2" points="422.5,131 424.7,134.1 428,134.1 427,131 431.6,129.3 433.9,131.7 437.1,132.7 442.6,132.5 
			444.8,127.5 449,121.1 		"/>
		<polyline class="st2" points="436.6,113.2 435.7,117.2 434.8,119.9 437.4,125.5 434.8,131.9 		"/>
		<path class="st2" d="M434.6,285.5l1.3-4.9v-4.2h-1.3l-2.8,0.8c0,0,0.3-11.9-4.8-9.8c-4.8-0.3-7.2-1.7-7.2-1.7v-4.6l-1.1-4.6
			c0,0,4.6-0.4,1.1-5.4c1.3-2.9,1.6-6.1,1.6-6.1l-1.5-4.8c0,0-3.1-2.7-1.3-5.7c-3.1,0-8.2,0-8.2,0l-2.6-5.7l1.5-3.8
			c0,0-2-6.7-8.7-5.5c-1.8-2.7-4.3-3.6-4.3-3.6l-1.3-1.3H390l-4.3-4.4l-2-9.4h-2.1h-3l-4.9,4.6l-3.1,1v1.9l-3.8-0.8l-3.3,0.4
			l-2.5,0.8c0,0-1.8-5.4-0.8-10.9c-2.1,2.9-4.3,5.7-4.3,5.7l-2.1-0.4l-0.8,0.8l-2.1-2.7l-1.6,0.8l-1.5-2.3l0.8-1.9l-2.8-2.3
			l-1.5-3.1v-2.3v-2.5v-1.9l2.3-1l-0.3-4.6l2.5-2.5l1.5-2.5l2.5-2.3h3.1l1.6-2.3h2.6c0,0,3.6-2.3-1.3-2.7c0-2.1,4.8-11.5-8-5.4
			c-3.6,0-4.8-2-4.8-2l-1.6-2.4l-4.1-4.4l-2.6-2.5l-2.8,0.8h-2.6l-1.5,18.4h-3.3l-3.4-2.1l-4.8-1.5l-1.3-3.3"/>
		<path class="st2" d="M334.8,151.9l1,3.4l-3,6.5l-3.8,24l-4.4,4l-3.1,4.4l-1.8,4.7l-1,1.8l-2.3-1.8c0,0-4.4-0.3-4.4-1.4
			c0-1.1,1-3.3,1-3.3l-1-1.3l-2.3-0.9"/>
		<path class="st2" d="M375.5,283.5V281l2.8-1l1.3-1.7c0,0,2.8-5.7-2.1-5.2c-0.7-3.1-3.9-18.6-4.2-15.1c1.8,0.4-0.7-4.4-0.7-4.4
			l-2.1-1.7l-1-3.1v-1.9l-2.8-2.5l2.1-4.4l1.8-2.9l-2.6-4.2l-0.7-4.4l2.8-3.6l-2-7.1l1.1-2.5l-3.4-6.7v-1.2"/>
		<polyline class="st2" points="363.2,249.7 366,248.7 366.7,245.5 		"/>
		<polyline class="st2" points="379.4,273.3 383.2,268.8 384.5,267.2 386.2,268.4 388.3,267.2 389.5,267.2 391.4,271.1 392.9,270.3 
			394.9,268.2 398.2,267.2 402.9,271.8 407.2,276.4 411,276.4 413.9,278.1 415.2,280.2 420.2,283.5 422.4,285.3 		"/>
		<polyline class="st2" points="398.2,267.2 400,265.9 400.9,261.1 400.9,257.9 403.7,253.1 404.9,252.1 408.8,253.1 410.8,252.1 
			413.1,252.1 416.5,252.1 418.7,256.5 		"/>
		<path class="st2" d="M361,168.3l2.1-5.3v-3.3l1-4.2l-0.8-3.6l-3.1-3.8v-1.7l2-1.1c0,0,5.4-2.5,0-4c-0.8-1-0.8-3.6-0.8-3.6h2.1h2.5
			l0.8-0.8h2.8l1.8-1.3h0.8h1.5v-1.3l-2-2.7l1.1-2.9v-1.9l-2.5-2.5l-0.2-6.3l2-5.5H369l-3.8,1.1l-0.3,1l-4.6-3.1l-3.4-1.3l-3.6,1.1
			l-3.6-2.5l-1.5-3.3l-2.5-4.8l-2.5-2.1l1.6-1.7V91l1.8-1.1l3.8-4l2.5-3.2"/>
		<polyline class="st2" points="373.7,135.4 375.5,140.4 379,141.3 381.9,141.3 383.9,139.2 386,139.2 387.3,138.4 389,135.4 
			390.6,134.2 391.8,132.9 390.9,131.4 389.3,131.4 387.8,129.7 388.2,125.5 386.4,123 387.5,122.2 390.1,124.3 391.8,125.5 
			395.2,124.3 400.1,122.2 405.1,117.2 407.5,116.3 408.5,120.9 410.1,121.4 408.5,127 408.8,131.6 411.1,136.7 414.1,138.5 
			415.9,136.9 418.8,135.8 422.5,133.5 422.5,128.8 419.7,125.5 417.2,121.6 417.2,119.1 419.2,117.6 421,118 421.1,113.6 		"/>
		<polyline class="st2" points="405.1,117.2 402.6,113.6 401.4,110.7 402.3,108 406.4,107.1 404.7,104 408.8,99.2 		"/>
		<polyline class="st2" points="422.5,131 424.7,134.1 428,134.1 427,131 431.6,129.3 433.9,131.7 437.1,132.7 442.6,132.5 
			444.8,127.5 449,121.1 		"/>
		<polyline class="st2" points="436.6,113.2 435.7,117.2 434.8,119.9 437.4,125.5 434.8,131.9 		"/>
		<path class="st8" d="M369,201.9h-1.8l0.9-1.4l0.9-0.7L368,197l2.2,2.4l1.7,0.9l0.6-0.9v-1.6h0.7v1.6l1.5-1.6l1-0.9v-2.7l1.7-0.7
			v1.4l-1.1,2.9v1.1l2.6-1.1l0.9-1.7l0.6-0.3l0.8,1.9h3.1c0,0,2.6-3.7,3.8-2.8c1.1-1.4,2.5-5,2.5-5l0.6,3.9l2-0.4l0.7,2.5l2.1,1.9
			h0.9l-1-1.9l1-1l1.2,1l1.6-1l1.7-0.6l1.5,0.6v1h-2.1l0.2,1.9l-0.4,3.2l-0.2,2l1.7,2.4l1.5,2l2.6,0.6c0,0,0.7,0.6,0,1.3
			s1.6,2.6,0.3,3.9s1,3.2,1,3.2l1.5-2.2l1-0.7l0.6,0.7l-0.9,2.2c0,0,2.1,3.9,1.5,5.3c0.1,1.7,1.5,6.2,5.9,6.5c2.2-1,3.2-2.3,3.2-2.3
			V225l2.1,0.3l1.4-1.4l1-0.7l1.7,0.7v1.3l-1.4,1.9h-1l-0.2,2.3h-1.5l-1.2-2l-0.1,2.7l-0.5,0.9c0,0,1.1,1.9,0.1,2.2
			c-1.7-0.7-3.6-1.9-3.6-1.9s-2.1-1.7-2.7-0.6c0,1.7-0.5,2.4-0.5,2.4l-1-1.1l-0.4,1.1l-0.5-3l0.4-1.6h-2.1l-1.2,2l-0.5-2l0.9-2.9
			l-1-2.7l1.1,0.6l0.4-2c0,0-1.5-0.2-1.2-3.7s-1.2,1.3-1.2,1.3l-1.2,0.6l-3.3-4.4l1.4-2l0.5-2.3l-1-0.1l-0.5,1.6l-0.2,1.1l-3,2.9
			c0,0,2.8-1.5-0.7-3.6c-2-1.1-1.1-2-3.9,0.3c-1.2,0.1-2.1-0.1-2.1-0.1l-0.9,1.4l-2.2-1l-0.9-0.9l1.6-0.9h2.3l1.4-1.6l2-0.6l1.3-1
			l-1.3-1.6l-0.8-0.6l-0.1-1.3l-1.4-1.4l-1.8,0.9l-2.5-0.3l-2.2-1.3l1.4-2.3l0.4-2.6h2.2l-1.1-1.1l-2,0.4l0.1,0.7l-1.2,3.2l-0.7,1.7
			l-1.4-0.7l-0.9,0.7l-0.9-3.3l-2.7-0.4l-4.3,1.9l-3.2,2.9l-0.5-2.6l-1.3-0.1l-0.5,1.4l-1.6-1L369,201.9z"/>
		<polygon class="st8" points="403.4,204.3 404,205.3 404.9,204.3 403.4,201.9 402.8,200.3 402.8,198.7 402.1,202 402.9,202.7 
			402.1,204.2 402.7,205.3 		"/>
		<path class="st8" d="M413.4,204l-1-2v-1.4l1-0.8l-0.5-1.1l-0.5-1.1l1-1.7h1.2l0.6,2.9l0.6,1.1l1.4-1.7l-1.5-2.3l3,0.4l1,1.3h1
			l0.7-1.7v-1.6l2,0.9l2.2,0.1l1.7,0.6l2.2,0.1l0.6,0.1l-0.5,1.4h-2.2l-3.1-1.6l0.9,1.6h0.7l2.5,1.1l3,0.4l3.1-1.6l-2-5.9l-2.2-1.7
			l0.5-1.9L429,186l0.1-1.3l-0.6-2.2l1.2-3.9l2.7,1.7l1,0.3l-0.7,3.1c0,0,1.5,3.4,0.6,5c1.1,1.6,3.1,5.6,2,6.9
			c-1.1,1.2,0.6,1.4,0.6,1.4l0.6,2.8l2.1-1.1l1.2-1.1c0,0,2.1,3.5-0.6,2.9l-1.5,1.6l-3-2.2l3.2,4.2l1,2l-0.4,1.4H435l-0.1,1.1l1,0.6
			h1.1l-1.1,1.9c0,0,3.8,3,2.2,4.3c-1.7-1.1-4.7,0-4.7,0l-1.6-1.1l1.4-2.7l0.4-2.6l-0.6-1.5l1.8-2.1h1.1v-1.7l-2.2-1.6l-1.4,4.3
			l0.4,3.7l-1.1,3l-0.1,3l-0.9,1.4l-1.4-6l1.5-2.7l-0.7-2l0.9-1.4l-2-2.4l-0.7,2.4c0,0-0.1-3.9-3.3-2.6c-1.4-1.7-1.7-1-5,1.3
			c-0.1,1.3-0.4,2-0.4,2l-2.2-3.4l-0.9,1.1L413.4,204z"/>
		<path class="st8" d="M448.8,200.6l1,1.4l1.8,1l1.4-1l-0.5-2.2h-1.6l-0.9-3.1l0.2-2.3l2.1-1.9h1.2l2,1.1l1,0.4l0.7-0.9l-2.7-2.3
			c0,0,3.7-7.9,4.2-5.5c0.5,2.4,0,3.9,0,3.9l0.2,1.3l1-0.7l1.6,1.1l1,1.6v2.6l0.7,0.4l0.6-1.7v-8.4l2.2-3.4l-0.6-5.5l1.2-0.9
			l0.6,2.7l0.6,1l1-1l1,1.3l0.9-0.3l-0.7-1.3l0.7-1.6l-1.4-0.9l1.4-1h1.2l-0.7-3.4l2.8-2.2l1.2,2.3l1.1-0.3v-2h0.6v2l-0.7,2.4
			l-1.2,2.2l-0.1,0.9l2.8-3l0.6,2.2l1-0.3v-1.7l1.5,0.6l1.1-0.6v1.6v1l2.7,0.4v-5.7l-3-0.7l-0.6-1.1l0.9-4v-1.7l1.6-2.3h-1l-2,1.7
			l-2.1-0.6l-0.4-1.1h2.1l1-1.9l0.1-1.9l1.2-1.1l-2.6,1.1h-3l1.4-2.2l1,1.4l1.6-0.7l0.9-1.4l-2.5-2.2l-0.9,0.9l-1.4-0.9l-1.4,3.7
			l-6.8-1l-1.2,6.7l1.7,1.9l2.5-1l0.5-1.4l-1.5-3l0.4-1.9l1.2,1l2.5-0.1l0.5,1.9v2l-2.5,0.4v1.1l1.8,1l-0.5,1.6l-1.6,1.7l-1.8,0.7
			l-2.2-1.9l-0.5-2.2l-0.7,1l-2.2-0.3v1.1l0.7,1.7l-0.4,0.9l-1.8-2.4l-0.1,1.3l0.7,1.7l-1.2,1.4l-0.6,1.3v-4.2l-1.5-2.4l0.4-2.7
			l0.7-4.3l2.5,1.6l1.4-2l1.2,0.9l0.2-2.2l-5.3-0.9l-3.4,2.4l-1.1,3.3l2.8-3.2l-0.1,2.7l-1.6,4.2l0.6,3.4l1.4,4.9l-2.6-1.3l-1.8,1.3
			l1.8,1.7l-1.6,1.6l-1.6,1.3l2.2,0.9l-3.1,2.7l-3.9-2.7l1.6-2.4l1-1.3c0,0,1.7-0.7,2.8,1c2.6-1,0.1-4.3,0.1-4.3l-1.4-0.3l0.5-2.2
			l2.3-1.9l0.6-4.7l-0.4-5.3l1.4-2.3l-3,1.6l0.6,3.7l-0.7,2.6l0.6,0.9c0,0-0.1,1.1-2,1.1c-1.6-1.9-3.3-3.2-3.3-3.2l-1.7,0.1l-2-2.7
			l0.9-1.6l-1.5-0.3l-1,1.3l-2.1,1.4l-0.9,1l-2.3,0.7l-1.5,1.6l-1.1,1.4l-2.1,0.6l-3.8,2.4c0,0-2.8-2.9-3.7-1.6
			c-1.8,0.4-2.6,4-2.6,4l0.7,1.3l1.6,2l0.7-1.9l1.2-0.3v-2l2-0.6l1.5,0.4l1.5-1.7l0.9-0.6l3.6,1l1.1-2.3l2.9-1.3l0.4,1l2.6-1
			l1.5,0.4l2.1,1.4l2,2.2v5.7c0,0-4.1-1-3.7,3.7c-2.5,0-3.9-1.4-3.9-1.4l-1.4,1.4l-3.3-2.7l-0.6,0.7l1.5,2l-1.5,2l2.2,1.6l2.5,0.9
			h2.6h2.6l1.1-1.6l2.2,1.6l1.1,1.4l-1,1.8v2.3l-1.8,2.2l-1.2,3.2L448,194l-0.6,2.7l0.4,1.4l-0.9,1.7l0.7,1.4L448.8,200.6z"/>
		<polygon class="st3" points="388.8,127.5 388.4,126.3 388.6,125.5 386.8,123 387.5,122.5 391.6,125.8 394.8,124.8 400.3,122.5 
			404.8,118.1 407.8,121.1 406.9,126 398.1,129.7 391.2,130.7 		"/>
		<polygon class="st3" points="404.7,116 404,115.1 402.8,113.4 401.7,110.7 402.5,108.2 406.8,107.3 405,104 409.1,99.4 
			411.1,100.5 412.6,101.1 421,113.4 420.7,116.9 415.7,116.9 		"/>
		<polyline class="st3" points="421.3,113.6 421.5,113.6 424.1,113.6 425.7,112.6 429.2,114 431.5,112.1 433.4,113.2 436.2,113.2 
			435.5,116.5 434.9,118.6 421.2,119.8 		"/>
		<polygon class="st3" points="435.7,118.7 436.1,117.5 436.9,113.3 440.3,114.3 442.2,116.2 442.8,116.6 445.1,116.6 446.7,118.8 
			447.7,120.1 448.6,120.9 448.6,121.1 446,125.1 		"/>
		<path class="st3" d="M447.3,124.2l1.9-2.9c0,0,0.6,0.2,0.6-0.2s2.2,6.6,2.2,6.6l2.5,6.5l2.1,1.3v2.9l2.3,4l0.1,0.3l1.4,1.2l2,1.7
			l1,0.6l0.8-1.1l1.6,1.3v1l1.8,0.6l0.8,0.2h1.4l1.2,0.5l1.4,0.8l0.5,0.3l1.5,0.5l1.3,0.4l1.8,0.5l1.1,1l2-1.5l1,3.1h-1.1l-1.4-1.1
			l-0.9,1.1l-1.4-1.1l-1,2.9l-17.6-5l-10.1-18L447.3,124.2z"/>
		<polygon class="st3" points="481.4,153 481.9,153.2 482.7,154.3 482.7,156 482,156.4 481.7,155.5 482.2,155 482.2,154.7 
			481.3,153.8 479.6,152.3 		"/>
		<polygon class="st3" points="482.8,156.6 483.8,157.4 484.8,156.8 484.8,161.4 485.5,161.8 484.5,162.3 483.8,161.7 484.2,161.1 
			484.2,160.9 483.1,161 482,158.2 481.9,157.5 		"/>
		<text transform="matrix(1 0 0 1 369.8181 104.7486)" class="st5 st6 st9">Venezuela</text>
		<text transform="matrix(1 0 0 1 329.2565 121.0303)" class="st5 st6 st9">Colombia</text>
		<text transform="matrix(1 0 0 1 309.695 156.8247)" class="st5 st6 st9">Ecuador</text>
		<text transform="matrix(1 0 0 1 380.4225 242.5327)" class="st5 st6 st9">Bolivia</text>
		<text transform="matrix(1 0 0 1 331.7936 211.8862)" class="st5 st6 st9">Peru</text>
		<text transform="matrix(1 0 0 1 411.0461 177.7764)" class="st5 st6 st9">Brazil</text>
		<text transform="matrix(1 0 0 1 416.6662 124.3858)" class="st5 st6 st9">Suriname</text>
		<text transform="matrix(1 0 0 1 438.6135 112.0523)"><tspan x="0" y="0" class="st5 st6 st9">French </tspan><tspan x="0" y="8.4" class="st5 st6 st9">Guiana</tspan></text>
		<text transform="matrix(1 0 0 1 403.6008 113.583)" class="st5 st6 st9">Guiana</text>
		<rect x="416.7" y="218.8" class="st3" width="13.9" height="11.5"/>
		<polygon class="st3" points="432.2,174.4 428.9,171.6 425.8,162.3 432.2,162.3 		"/>
		<rect x="422.5" y="166" class="st3" width="4.1" height="5.5"/>
		<path class="st3" d="M429.8,174h-1.5c-3.1,0-5.6-2.5-5.6-5.6v0c0-3.1,2.5-5.6,5.6-5.6h1.5c3.1,0,5.6,2.5,5.6,5.6v0
			C435.4,171.5,432.9,174,429.8,174z"/>
		<rect x="444.6" y="198.9" class="st3" width="8.9" height="12.8"/>
	</g>
	<rect x="429.9" y="150.6" class="st3" width="17.4" height="17.8"/>
	<rect x="428.8" y="175.5" class="st3" width="19.7" height="16.3"/>
	<rect x="426.7" y="175.4" class="st3" width="7.9" height="9.6"/>
	<rect x="446" y="195" class="st3" width="5.9" height="6.2"/>
	<rect x="445.7" y="190" class="st3" width="6.6" height="6.1"/>
	<rect x="437.7" y="174.9" class="st3" width="5.8" height="5.8"/>
	<rect x="363.7" y="189.7" class="st3" width="12.1" height="12.7"/>
	<ellipse class="st3" cx="375.9" cy="195" rx="3" ry="2.7"/>
	<ellipse class="st3" cx="419.5" cy="230.3" rx="3.6" ry="4.1"/>
	<ellipse class="st3" cx="372.6" cy="201.2" rx="2.8" ry="2.9"/>
	<ellipse class="st3" cx="413.9" cy="230.3" rx="3.3" ry="3.7"/>
	<ellipse class="st3" cx="373.2" cy="202" rx="2.1" ry="2.5"/>
	<ellipse class="st3" cx="412.4" cy="228.6" rx="3.6" ry="2.4"/>
	<ellipse class="st3" cx="446" cy="159.5" rx="3.9" ry="3.6"/>
	<ellipse class="st3" cx="412.5" cy="198.2" rx="3.3" ry="3.3"/>
	<ellipse class="st3" cx="415.2" cy="203" rx="4.2" ry="3.7"/>
	<ellipse class="st3" cx="429.9" cy="215" rx="4.4" ry="3.1"/>
	<ellipse class="st3" cx="453.4" cy="192.3" rx="6" ry="3.6"/>
	<ellipse class="st3" cx="462.4" cy="181.3" rx="1.1" ry="11.7"/>
	<ellipse class="st3" cx="462.4" cy="169.6" rx="6.4" ry="2.3"/>
	<ellipse class="st3" cx="464.6" cy="168.3" rx="1.4" ry="7.5"/>
	<ellipse class="st3" cx="462.4" cy="195" rx="6.4" ry="1.5"/>
	<ellipse class="st3" cx="440.7" cy="201.4" rx="10.6" ry="2.7"/>
	<ellipse class="st3" cx="396.8" cy="203" rx="1" ry="9.7"/>
	<ellipse class="st3" cx="402.1" cy="209.1" rx="0.7" ry="7.9"/>
	<ellipse class="st3" cx="395.8" cy="198.9" rx="0.5" ry="6.9"/>
	<ellipse class="st3" cx="390.2" cy="196.1" rx="7" ry="0.9"/>
	<ellipse class="st3" cx="422.4" cy="199.5" rx="9.4" ry="1.3"/>
	<ellipse class="st3" cx="459.4" cy="183.7" rx="7" ry="0.6"/>
	<ellipse class="st3" cx="463.5" cy="191.9" rx="3.2" ry="2.6"/>
	<ellipse class="st3" cx="477.9" cy="175.2" rx="5.2" ry="2.2"/>
	<ellipse class="st3" cx="393.1" cy="211.9" rx="4.2" ry="2.2"/>
	<ellipse class="st11" cx="392.3" cy="214.5" rx="0.9" ry="0.3"/>
	<ellipse class="st3" cx="392" cy="213.7" rx="0.6" ry="0.5"/>
	<ellipse class="st3" cx="395.8" cy="206.3" rx="1" ry="0.5"/>
	<ellipse class="st3" cx="395.6" cy="210" rx="1.2" ry="0.9"/>
	<ellipse class="st3" cx="375.4" cy="202.5" rx="0.5" ry="0.5"/>
	<path class="st8" d="M445.7,99.2"/>
</g>
<text transform="matrix(1 0 0 1 37.8536 50.4143)"><tspan x="0" y="0" class="st12 st13">Brazilian Amazon </tspan><tspan x="0" y="34.8" class="st12 st13">Threatened by </tspan><tspan x="0" y="69.6" class="st12 st13">Meat Consumption </tspan></text>
<path class="st14" d="M70,609"/>
<path class="st14" d="M271.8,520.7"/>
<path class="st14" d="M70,609"/>
<rect x="56.6" y="573.9" class="st15" width="45.2" height="35"/>
<rect x="119.3" y="600.5" class="st15" width="45.2" height="8.3"/>
<rect x="182" y="505.5" class="st15" width="45.2" height="103.4"/>
<rect x="244.8" y="588.9" class="st15" width="45.2" height="20"/>
<text transform="matrix(1 0 0 1 258.2207 616.0791)" class="st6 st9">Other </text>
<text transform="matrix(1 0 0 1 195.2749 616.0791)"><tspan x="0" y="0" class="st6 st9">Cattle </tspan><tspan x="-1.6" y="8.4" class="st6 st9">Pasture</tspan></text>
<text transform="matrix(1 0 0 1 132.9517 616.0791)"><tspan x="0" y="0" class="st6 st9">Large </tspan><tspan x="-7.8" y="8.4" class="st6 st9">Scale Crops</tspan></text>
<text transform="matrix(1 0 0 1 58.6504 616.0791)"><tspan x="0" y="0" class="st6 st9">Regenerating </tspan><tspan x="11.4" y="8.4" class="st6 st9">Forest</tspan></text>
<rect x="74.6" y="563.7" class="st16" width="26.9" height="8.1"/>
<text transform="matrix(1 0 0 1 74.5665 568.6738)" class="st6 st9">21%</text>
<polygon class="st16" points="223.4,512.3 196.5,512.3 197.9,498.9 224.8,498.9 "/>
<text transform="matrix(1 0 0 1 197.8963 503.8253)" class="st6 st9">62%</text>
<rect x="262.3" y="582.3" class="st16" width="26.9" height="8.1"/>
<text transform="matrix(1 0 0 1 262.3245 587.2231)" class="st6 st9">12%</text>
<rect x="136.8" y="592.6" class="st16" width="26.9" height="8.1"/>
<text transform="matrix(1 0 0 1 136.7728 597.6077)" class="st6 st9">5%</text>
<text transform="matrix(1 0 0 1 38.0928 486.7573)" class="st12 st17">CAUSES OF DEFORESTATION IN THE BRAZILIAN AMAZON</text>
<text transform="matrix(1 0 0 1 38.0928 646.997)" class="st12 st17">MEAT CONSUMPTION PER CAPITA IN BRAZIL</text>
<text transform="matrix(1 0 0 1 38.0928 350.0269)" class="st12 st17">ANNUAL DEFORESTATION IN THE BRAZILIAN AMAZON</text>
<line class="st18" x1="38.6" y1="462.3" x2="289.2" y2="462.3"/>
<line class="st18" x1="38.6" y1="462.3" x2="38.6" y2="363.5"/>
<line class="st18" x1="101.3" y1="462.3" x2="101.3" y2="363.5"/>
<line class="st18" x1="163.9" y1="462.3" x2="163.9" y2="363.5"/>
<line class="st18" x1="226.6" y1="462.3" x2="226.6" y2="363.5"/>
<line class="st18" x1="289.2" y1="462.3" x2="289.2" y2="363.5"/>
<line class="st18" x1="38.6" y1="462.3" x2="38.6" y2="363.5"/>
<line class="st18" x1="38.6" y1="462.3" x2="289.2" y2="462.3"/>
<line class="st18" x1="38.6" y1="437.6" x2="289.2" y2="437.6"/>
<line class="st18" x1="38.6" y1="412.9" x2="289.2" y2="412.9"/>
<line class="st18" x1="38.6" y1="388.2" x2="289.2" y2="388.2"/>
<line class="st18" x1="38.6" y1="363.5" x2="289.2" y2="363.5"/>
<line class="st19" x1="132.6" y1="407" x2="70" y2="388.2"/>
<line class="st19" x1="195.2" y1="448.2" x2="132.6" y2="407"/>
<line class="st19" x1="257.9" y1="416.8" x2="195.2" y2="448.2"/>
<rect x="67.5" y="386.7" class="st20" width="4.9" height="3"/>
<rect x="130.1" y="405.6" class="st20" width="4.9" height="3"/>
<rect x="192.8" y="446.8" class="st20" width="4.9" height="3"/>
<rect x="255.4" y="415.3" class="st20" width="4.9" height="3"/>
<text transform="matrix(1 0 0 1 250.6943 469.1675)" class="st6 st9">2013</text>
<text transform="matrix(1 0 0 1 188.0566 469.1675)" class="st6 st9">2012</text>
<text transform="matrix(1 0 0 1 125.4189 469.1675)" class="st6 st9">2011</text>
<text transform="matrix(1 0 0 1 62.7832 469.1675)" class="st6 st9">2010</text>
<text transform="matrix(1 0 0 1 36.7002 492.2856)" class="st6 st21"> </text>
<g>
	<g>
		<line class="st14" x1="429" y1="1177.5" x2="433.8" y2="1177.5"/>
		<line class="st14" x1="429" y1="1143.4" x2="433.8" y2="1143.4"/>
		<line class="st14" x1="429" y1="1109.2" x2="433.8" y2="1109.2"/>
		<line class="st14" x1="429" y1="1075" x2="433.8" y2="1075"/>
		<line class="st14" x1="429" y1="1040.8" x2="433.8" y2="1040.8"/>
		<line class="st14" x1="429" y1="1006.6" x2="433.8" y2="1006.6"/>
		<line class="st14" x1="429" y1="972.4" x2="433.8" y2="972.4"/>
		<line class="st14" x1="429" y1="938.2" x2="433.8" y2="938.2"/>
		<line class="st14" x1="429" y1="904.1" x2="433.8" y2="904.1"/>
		<line class="st14" x1="429" y1="869.9" x2="433.8" y2="869.9"/>
		<line class="st14" x1="429" y1="835.7" x2="433.8" y2="835.7"/>
		<line class="st14" x1="429" y1="801.5" x2="433.8" y2="801.5"/>
		<line class="st14" x1="429" y1="767.3" x2="433.8" y2="767.3"/>
		<polygon class="st15" points="429,763.2 619.5,762.6 619.5,770.6 429,771.4 		"/>
		<rect x="429" y="797.4" class="st15" width="83.8" height="8.2"/>
		<rect x="429" y="831.6" class="st15" width="80" height="8.2"/>
		<rect x="429" y="865.8" class="st15" width="78.4" height="8.2"/>
		<rect x="429" y="900" class="st15" width="63.2" height="8.2"/>
		<rect x="429" y="934.1" class="st15" width="53.3" height="8.2"/>
		<rect x="429" y="968.3" class="st15" width="45.7" height="8.2"/>
		<rect x="429" y="1002.5" class="st15" width="36.6" height="8.2"/>
		<rect x="429" y="1036.7" class="st15" width="33.5" height="8.2"/>
		<rect x="429" y="1070.9" class="st15" width="32.7" height="8.2"/>
		<rect x="429" y="1105.1" class="st15" width="23.6" height="8.2"/>
		<rect x="429" y="1139.3" class="st15" width="22.8" height="8.2"/>
		<rect x="429" y="1173.4" class="st15" width="13.7" height="8.2"/>
		<text transform="matrix(1 0 0 1 391.2412 1181.9336)" class="st6 st22">Aviation</text>
		<text transform="matrix(1 0 0 1 396.6108 1147.748)" class="st6 st22">Mining</text>
		<text transform="matrix(1 0 0 1 370.2012 1113.5605)" class="st6 st22">Waster Water</text>
		<text transform="matrix(1 0 0 1 376.8213 1074.9863)"><tspan x="0" y="0" class="st6 st22">Oil and Gas </tspan><tspan x="2.8" y="12" class="st6 st22">Production</tspan></text>
		<text transform="matrix(1 0 0 1 344.2617 1040.8008)" class="st6 st22">Chemical Industries</text>
		<text transform="matrix(1 0 0 1 355.8813 1011.002)" class="st6 st22">Agricultural Soils</text>
		<text transform="matrix(1 0 0 1 367.3013 971.3486)"><tspan x="0" y="0" class="st6 st22">Iron and steel </tspan><tspan x="5.5" y="12" class="st6 st22">Manufacture</tspan></text>
		<text transform="matrix(1 0 0 1 392.2212 942.6309)" class="st6 st22">Livstock</text>
		<text transform="matrix(1 0 0 1 358.3916 904.0537)"><tspan x="0" y="0" class="st6 st22">Energy Industry </tspan><tspan x="6.9" y="12" class="st6 st22">Process Losses</tspan></text>
		<text transform="matrix(1 0 0 1 362.2412 840.0703)" class="st6 st22">Road Transport</text>
		<text transform="matrix(1 0 0 1 362.0864 873.9707)" class="st6 st22">Deforestation</text>
		<text transform="matrix(1 0 0 1 378.1812 805.8828)"><tspan x="0" y="0" class="st6 st22">Residential </tspan><tspan x="9.1" y="12" class="st6 st22">Buildings</tspan></text>
		<text transform="matrix(1 0 0 1 372.1313 771.6973)" class="st6 st22">Power Plants</text>
		<text transform="matrix(1 0 0 1 631.1631 770.5771)" class="st6 st22">25%-30%</text>
		<text transform="matrix(1 0 0 1 526.623 805.5977)" class="st6 st22">11%</text>
		<text transform="matrix(1 0 0 1 521.631 840.0704)" class="st6 st22">10.5%</text>
		<text transform="matrix(1 0 0 1 518.7409 877.4688)" class="st6 st22">10.3%</text>
		<text transform="matrix(1 0 0 1 509.5107 908.1582)" class="st6 st22">8.3%</text>
		<text transform="matrix(1 0 0 1 495.916 942.3438)" class="st6 st22">7%</text>
		<text transform="matrix(1 0 0 1 488.5947 976.5293)" class="st6 st22">6%</text>
		<text transform="matrix(1 0 0 1 477.7588 1011.002)" class="st6 st22">5.5%</text>
		<text transform="matrix(1 0 0 1 471.9609 1044.9043)" class="st6 st22">4.8%</text>
		<text transform="matrix(1 0 0 1 471.9609 1079.0879)" class="st6 st22">4.4%</text>
		<text transform="matrix(1 0 0 1 466.1636 1113.2773)" class="st6 st22">4.3%</text>
		<text transform="matrix(1 0 0 1 462.0596 1147.748)" class="st6 st22">3.1%</text>
		<text transform="matrix(1 0 0 1 455.2539 1181.6484)" class="st6 st22">3%</text>
		<path class="st3" d="M625.3,766.6c0,4.1-2.6,7.4-5.8,7.4s-5.9-2.5-5.9-6.7s2.7-8.1,5.9-8.1S625.3,762.5,625.3,766.6z"/>
	</g>
	<text transform="matrix(1 0 0 1 358.4554 721.9252)" class="st12 st17">SOURCES OF MAN-MADE GREEN HOUSE GASES</text>
	<text transform="matrix(1 0 0 1 40.6553 793.333)" class="st12 st17">MEAT PRODUCTION AND EXPORT</text>
	<text transform="matrix(1.0931 0 0 1 309.6949 72.5856)" class="st12 st17">1970</text>
	<text transform="matrix(1.0931 0 0 1 555.5105 72.5854)" class="st12 st17">1990</text>
	<text transform="matrix(1.0931 0 0 1 335.8869 322.8275)" class="st12 st17">2014</text>
	<text transform="matrix(1 0 0 1 304.8016 44.9532)" class="st12 st17">HISTORICAL MAPS OF DEFORESTATION IN THE AMAZON SINCE 1970</text>
	<text transform="matrix(1 0 0 1 442.7051 749.8359)" class="st12 st17">Share of Global GHG Emissions</text>
</g>
<g>
	<rect x="56.8" y="1766.8" class="st23" width="224.5" height="30.1"/>
	<text transform="matrix(1 0 0 1 547.4797 934.2307)" class="st12 st24">Consequences of GHG emission </text>
</g>
<text transform="matrix(1 0 0 1 559.2825 814.7889)" class="st12 st24">Damage to the enviroment</text>
<text transform="matrix(1 0 0 1 559.2828 828.8122)"><tspan x="0" y="0" class="st6 st17">It is important to notice that deforestation </tspan><tspan x="0" y="13.2" class="st6 st17">brings along greenhouse gases which in </tspan><tspan x="0" y="26.4" class="st6 st17">turn, generates major damages to the </tspan><tspan x="0" y="39.6" class="st6 st17">ozone layer and directly influences </tspan><tspan x="0" y="52.8" class="st6 st17">climate change and global warming.</tspan><tspan x="0" y="66" class="st6 st17"> </tspan></text>
<text transform="matrix(1 0 0 1 37.8531 146.2437)"><tspan x="0" y="0" class="st6 st17">According to a research made by Greenpeace </tspan><tspan x="0" y="13.2" class="st6 st17">Organization, cattle ranching, which has been</tspan><tspan x="0" y="26.4" class="st6 st17">expanding continuously since the early 1970s </tspan><tspan x="0" y="39.6" class="st6 st17">in Brazil, is responsible for the majority of the </tspan><tspan x="0" y="52.8" class="st6 st17">Brazilian Amazon deforestation. And it has </tspan><tspan x="0" y="66" class="st6 st17">become one of the biggest threats to the </tspan><tspan x="0" y="79.2" class="st6 st17">biodiversity of the region.</tspan></text>
<text transform="matrix(1 0 0 1 37.8532 245.0705)"><tspan x="0" y="0" class="st6 st17">Because of its great boom in the world&apos;s export</tspan><tspan x="0" y="13.2" class="st6 st17">and meat production business , the Amazon </tspan><tspan x="0" y="26.4" class="st6 st17">jungle of Brazil runs a huge risk, due to the </tspan><tspan x="0" y="39.6" class="st6 st17">numerous deforestation carried out each </tspan><tspan x="0" y="52.8" class="st6 st17">year,  that as seen in the accompanying </tspan><tspan x="0" y="66" class="st6 st17">charts , its main cause is the livestock </tspan><tspan x="0" y="79.2" class="st6 st17">breeding in the region.</tspan></text>
<g>
	
		<rect x="-795.3" y="1144.4" transform="matrix(1 9.810399e-03 -9.810399e-03 1 11.255 7.78)" class="st25" width="15.9" height="13.5"/>
</g>
<g>
	<text transform="matrix(1 0 0 1 1010.3357 553.9462)" class="st6" style="font-size:5.9531px;">Others</text>
	<text transform="matrix(1 0 0 1 212.7602 1285.7563)" class="st6" style="font-size:5.9531px;">Argentina</text>
	<text transform="matrix(1 0 0 1 212.7602 1306.0063)" class="st6" style="font-size:5.9531px;">Brazil</text>
</g>
<g>
	
		<rect x="-993.5" y="1007.1" transform="matrix(1 9.810399e-03 -9.810399e-03 1 9.8986 9.718)" class="st26" width="15.9" height="13.5"/>
</g>
<g>
	
		<rect x="-996" y="1164.7" transform="matrix(1 9.810399e-03 -9.810399e-03 1 11.4452 9.7496)" class="st25" width="15.9" height="13.5"/>
</g>
<g>
	<text transform="matrix(1 0 0 1 1210.7914 556.0316)" class="st6" style="font-size:5.9531px;">Others</text>
	<text transform="matrix(1 0 0 1 413.2159 1287.8418)" class="st6" style="font-size:5.9531px;">Australia</text>
	<text transform="matrix(1 0 0 1 413.2159 1308.0918)" class="st6" style="font-size:5.9531px;">Brazil</text>
	<text transform="matrix(1 0 0 1 413.2159 1328.3418)" class="st6" style="font-size:5.9531px;">India</text>
</g>
<g>
	
		<rect x="-1198.4" y="997.2" transform="matrix(1 9.810399e-03 -9.810399e-03 1 9.7921 11.7276)" class="st26" width="15.9" height="13.5"/>
</g>
<g>
	
		<rect x="-1198.6" y="1017.5" transform="matrix(1 9.810399e-03 -9.810399e-03 1 9.9908 11.7305)" class="st25" width="15.9" height="13.5"/>
</g>
<g>
	<text transform="matrix(1 0 0 1 1415.77 548.1966)" class="st6" style="font-size:5.9531px;">Others</text>
	<text transform="matrix(1 0 0 1 1415.77 568.4466)" class="st6" style="font-size:5.9531px;">Uruguay</text>
	<text transform="matrix(1 0 0 1 1415.77 588.6966)" class="st6" style="font-size:5.9531px;">Paraguay</text>
	<text transform="matrix(1 0 0 1 1415.77 608.9466)" class="st6" style="font-size:5.9531px;">Brazil</text>
</g>
<g>
	<g>
		<g>
			<rect x="260.1" y="1863.2" class="st25" width="18.1" height="13"/>
			<g>
				<path class="st27" d="M240.7,1134.9l-32.9,40.6c-25.9-15.7-32.2-46.6-14.1-69.1c11-13.7,27.7-21.1,46.9-21.1V1134.9z"/>
			</g>
		</g>
		<g>
			<rect x="353.4" y="1318.9" class="st28" width="18.1" height="13"/>
			<g>
				<path class="st29" d="M240.7,1134.9l11.9,48.5c-15.9,2.9-31.4,0.2-44.8-7.9L240.7,1134.9z"/>
			</g>
		</g>
		<g>
			<rect x="354.5" y="1338.1" class="st30" width="18.1" height="13"/>
			<g>
				<path class="st31" d="M240.7,1134.9v-49.6c31.6,0,57.3,22.2,57.3,49.6c0,24-18.3,43.5-45.4,48.5L240.7,1134.9z"/>
			</g>
		</g>
	</g>
	<g>
		<g>
		</g>
		<g>
		</g>
		<g>
		</g>
	</g>
	<g>
		<text transform="matrix(1.1874 0 0 1 280.459 1871.8125)"><tspan x="0" y="0" class="st6" style="font-size:5.7217px;">O</tspan><tspan x="4" y="0" class="st6" style="font-size:5.7217px;">thers</tspan></text>
		<text transform="matrix(1.1874 0 0 1 280.459 1891.2744)"><tspan x="0" y="0" class="st6" style="font-size:5.7217px;">A</tspan><tspan x="3.5" y="0" class="st6" style="font-size:5.7217px;">r</tspan><tspan x="5.3" y="0" class="st6" style="font-size:5.7217px;">ge</tspan><tspan x="11.4" y="0" class="st6" style="font-size:5.7217px;">n</tspan><tspan x="14.5" y="0" class="st6" style="font-size:5.7217px;">tina</tspan></text>
		<text transform="matrix(1.1874 0 0 1 280.459 1910.7393)"><tspan x="0" y="0" class="st6" style="font-size:5.7217px;">B</tspan><tspan x="3.1" y="0" class="st6" style="font-size:5.7217px;">r</tspan><tspan x="4.9" y="0" class="st6" style="font-size:5.7217px;">azil</tspan></text>
	</g>
</g>
<g>
	<g>
		<g>
			<rect x="480.5" y="1865.2" class="st26" width="18.1" height="13"/>
			<g>
				<path class="st27" d="M238.8,862.3l-41.9-33.8c11.2-10.4,25.5-15.8,41.9-15.8V862.3z"/>
			</g>
		</g>
		<g>
			<rect x="480.5" y="1884.6" class="st25" width="18.1" height="13"/>
		</g>
		<g>
			<rect x="573.8" y="1340.4" class="st28" width="18.1" height="13"/>
			<g>
				<path class="st31" d="M238.8,862.3l16.7,47.4c-30.3,8-62.3-6.7-71.5-32.9c-6.2-17.4-1.5-35,12.9-48.3L238.8,862.3z"/>
			</g>
		</g>
		<g>
			<rect x="574.9" y="1359.6" class="st30" width="18.1" height="13"/>
			<g>
				<path class="st29" d="M238.8,862.3v-49.6c31.6,0,57.3,22.2,57.3,49.6c0,22.3-15.8,40.9-40.5,47.4L238.8,862.3z"/>
			</g>
		</g>
	</g>
	<g>
		<g>
		</g>
		<g>
		</g>
		<g>
		</g>
		<g>
		</g>
	</g>
	<g>
		<text transform="matrix(1.1874 0 0 1 500.8584 1873.8174)"><tspan x="0" y="0" class="st6" style="font-size:5.7217px;">O</tspan><tspan x="4" y="0" class="st6" style="font-size:5.7217px;">thers</tspan></text>
		<text transform="matrix(1.1874 0 0 1 500.8584 1912.7412)"><tspan x="0" y="0" class="st6" style="font-size:5.7217px;">B</tspan><tspan x="3.1" y="0" class="st6" style="font-size:5.7217px;">r</tspan><tspan x="4.9" y="0" class="st6" style="font-size:5.7217px;">azil</tspan></text>
		<text transform="matrix(1.1874 0 0 1 500.8584 1932.2051)"><tspan x="0" y="0" class="st6" style="font-size:5.7217px;">I</tspan><tspan x="1.4" y="0" class="st6" style="font-size:5.7217px;">ndia</tspan></text>
	</g>
</g>
<g>
	<g>
		<g>
			<rect x="714.4" y="1857.7" class="st26" width="18.1" height="13"/>
			<g>
				<path class="st27" d="M239.5,997.7l-55.1-13.7c7.1-21.5,29.3-35.9,55.1-35.9V997.7z"/>
			</g>
		</g>
		<g>
			<rect x="714.4" y="1877.1" class="st25" width="18.1" height="13"/>
		</g>
		<g>
			<rect x="1784.5" y="587.4" class="st28" width="18.1" height="13"/>
			<g>
				<path class="st29" d="M239.5,997.7l-46.9,28.4c-10.4-12.9-13.1-27-8.1-42.1L239.5,997.7z"/>
			</g>
		</g>
		<g>
			<rect x="1785.6" y="606.6" class="st30" width="18.1" height="13"/>
			<g>
				<path class="st31" d="M239.5,997.7v-49.6c31.6,0,57.3,22.2,57.3,49.6s-25.6,49.6-57.3,49.6c-19.3,0-35.8-7.4-46.9-21.1
					L239.5,997.7z"/>
			</g>
		</g>
	</g>
	<g>
		<g>
		</g>
		<g>
		</g>
		<g>
		</g>
		<g>
		</g>
	</g>
	<g>
		<text transform="matrix(1.1874 0 0 1 734.791 1866.2871)"><tspan x="0" y="0" class="st6" style="font-size:5.7217px;">O</tspan><tspan x="4" y="0" class="st6" style="font-size:5.7217px;">thers</tspan></text>
		<text transform="matrix(1.1874 0 0 1 734.791 1905.2129)"><tspan x="0" y="0" class="st6" style="font-size:5.7217px;">P</tspan><tspan x="2.9" y="0" class="st6" style="font-size:5.7217px;">a</tspan><tspan x="5.7" y="0" class="st6" style="font-size:5.7217px;">r</tspan><tspan x="7.5" y="0" class="st6" style="font-size:5.7217px;">agu</tspan><tspan x="16.6" y="0" class="st6" style="font-size:5.7217px;">a</tspan><tspan x="19.3" y="0" class="st6" style="font-size:5.7217px;">y</tspan></text>
		<text transform="matrix(1.1874 0 0 1 734.791 1924.6748)"><tspan x="0" y="0" class="st6" style="font-size:5.7217px;">B</tspan><tspan x="3.1" y="0" class="st6" style="font-size:5.7217px;">r</tspan><tspan x="4.9" y="0" class="st6" style="font-size:5.7217px;">azil</tspan></text>
	</g>
</g>
<g>
	<path class="st14" d="M93.1,1659.4"/>
	<line class="st14" x1="93.1" y1="1724.3" x2="96.8" y2="1724.3"/>
	<rect x="93.1" y="1743.3" class="st25" width="122.1" height="31.1"/>
	<rect x="93.1" y="1708.7" class="st32" width="39.1" height="31.1"/>
	<rect x="93.1" y="1674.1" class="st28" width="142.3" height="31.1"/>
	<text transform="matrix(1.1874 0 0 1 221.8047 1763.207)" class="st6" style="font-size:5.7217px;">Others</text>
	<text transform="matrix(0.9548 0 0 1 203.0698 1124.6084)" class="st6 st9">Others</text>
	<text transform="matrix(1.1874 0 0 1 146.5732 1725.9629)" class="st6" style="font-size:5.7217px;">Argentina</text>
	<text transform="matrix(0.9548 0 0 1 220.1533 1167.665)" class="st6 st9">Argentina</text>
	<text transform="matrix(1.1874 0 0 1 244.2197 1686.3438)" class="st6" style="font-size:5.7217px;">Brazil</text>
	<text transform="matrix(0.9548 0 0 1 247.9941 1129.9863)" class="st6 st9">Brazil</text>
	<path class="st14" d="M314.1,1657.6"/>
	<path class="st14" d="M317.7,1722.5"/>
	<rect x="314.1" y="1749.7" class="st26" width="34.4" height="23.4"/>
	<rect x="314.1" y="1723.8" class="st25" width="107.3" height="23.4"/>
	<rect x="314.1" y="1697.8" class="st32" width="110.7" height="23.4"/>
	<rect x="314.1" y="1671.9" class="st28" width="120.7" height="23.4"/>
	<text transform="matrix(1.1874 0 0 1 322.793 1761.8398)" class="st6" style="font-size:5.7217px;">Others</text>
	<text transform="matrix(0.9548 0 0 1 214.7124 831.0801)"><tspan x="0" y="0" class="st6 st9">Others</tspan><tspan x="0" y="8.4" class="st6 st9">594 tons</tspan></text>
	<path class="st14" d="M543.8,1657.6"/>
	<path class="st14" d="M543.8,1722.5"/>
	<rect x="543.8" y="1749.7" class="st26" width="36.3" height="23.4"/>
	<rect x="543.8" y="1723.8" class="st25" width="21.7" height="23.4"/>
	<rect x="543.8" y="1697.8" class="st32" width="25.5" height="23.4"/>
	<rect x="543.8" y="1671.9" class="st28" width="116.2" height="23.4"/>
	<text transform="matrix(0.9548 0 0 1 205.9385 973.4707)"><tspan x="0" y="0" class="st6 st9">Others</tspan><tspan x="0" y="8.4" class="st6 st9">626 tons</tspan></text>
	<text transform="matrix(1.1874 0 0 1 572.0459 1733.5205)"><tspan x="0" y="0" class="st6" style="font-size:5.7217px;">Uruguay</tspan><tspan x="0" y="6.9" class="st6" style="font-size:5.7217px;">375 tons</tspan></text>
	<text transform="matrix(1.1874 0 0 1 572.0459 1710.0352)"><tspan x="0" y="0" class="st6" style="font-size:5.7217px;">Paraguay</tspan><tspan x="0" y="6.9" class="st6" style="font-size:5.7217px;">440 tons</tspan></text>
	<text transform="matrix(0.9548 0 0 1 186.1973 1002.1162)"><tspan x="0" y="0" class="st6 st9">Paraguay</tspan><tspan x="0" y="8.4" class="st6 st9">440 tons</tspan></text>
	<text transform="matrix(1.1874 0 0 1 615.0244 1680.0908)"><tspan x="0" y="0" class="st6" style="font-size:5.7217px;">Brazil</tspan><tspan x="0" y="6.9" class="st6" style="font-size:5.7217px;">2,   005 tons</tspan></text>
	<text transform="matrix(0.9548 0 0 1 252.2617 992.5889)"><tspan x="0" y="0" class="st6 st9">Brazil</tspan><tspan x="0" y="8.4" class="st6 st9">2,005 tons</tspan></text>
	<polygon class="st16" points="209.9,1663.3 99.2,1663.3 103,1644.1 213.7,1644.1 	"/>
	<text transform="matrix(1.1874 0 0 1 102.8823 1650.8945)"><tspan x="0" y="0" class="st6" style="font-size:9.6112px;">Meat Production in</tspan><tspan x="-1.9" y="11.5" class="st6" style="font-size:9.6112px;">South America </tspan></text>
	<rect x="328.6" y="1649.4" class="st16" width="110.7" height="8.2"/>
	<text transform="matrix(1.1874 0 0 1 328.5791 1656.1758)" class="st6" style="font-size:9.6112px;">Global Meat Exports</text>
	<rect x="544.3" y="1635.4" class="st16" width="110.7" height="27.9"/>
	<text transform="matrix(1.1874 0 0 1 544.2754 1642.2402)"><tspan x="0" y="0" class="st6" style="font-size:9.6112px;">Main South Americans </tspan><tspan x="0" y="11.5" class="st6" style="font-size:9.6112px;">Meat Exports</tspan></text>
	<text transform="matrix(1.1874 0 0 1 392.2637 1680.0889)"><tspan x="0" y="0" class="st6" style="font-size:5.7217px;">India</tspan><tspan x="0" y="6.9" class="st6" style="font-size:5.7217px;">2,082 tons</tspan></text>
	<text transform="matrix(0.9548 0 0 1 251.6655 855.5732)"><tspan x="0" y="0" class="st6 st9">India</tspan><tspan x="0" y="8.4" class="st6 st9">2,082 tons</tspan></text>
	<text transform="matrix(1.1874 0 0 1 382.4688 1710.0332)"><tspan x="0" y="0" class="st6" style="font-size:5.7217px;">Brazil</tspan><tspan x="0" y="6.9" class="st6" style="font-size:5.7217px;">1,909 tons</tspan></text>
	<text transform="matrix(0.9548 0 0 1 201.7319 877.5703)"><tspan x="0" y="0" class="st6 st9">Brazil</tspan><tspan x="0" y="8.4" class="st6 st9">1,909 tons</tspan></text>
	<text transform="matrix(1.1874 0 0 1 376.667 1735.8555)"><tspan x="0" y="0" class="st6" style="font-size:5.7217px;">Autralia</tspan><tspan x="0" y="6.9" class="st6" style="font-size:5.7217px;">1,851 tons</tspan></text>
</g>
<text transform="matrix(1 0 0 1 36.6903 860.6962)" class="st6 st17">Global Meat Exports</text>
<text transform="matrix(1 0 0 1 37.7739 1134.7598)"><tspan x="0" y="0" class="st6 st17">Main Southamericans </tspan><tspan x="0" y="13.2" class="st6 st17">Meat Producers</tspan></text>
<text transform="matrix(1 0 0 1 36.6904 984.4521)"><tspan x="0" y="0" class="st6 st17">Main Southamericans</tspan><tspan x="0" y="13.2" class="st6 st17">Meat Exports</tspan></text>
<rect x="618.7" y="314.3" class="st3" width="15.9" height="13.5"/>
<rect x="619.7" y="334.3" class="st4" width="15.9" height="13.5"/>
<text transform="matrix(1 0 0 1 641.4365 342.6761)" class="st6 st22">Deforested Area</text>
<text transform="matrix(1 0 0 1 641.4364 323.9646)" class="st6 st22">Amazon</text>
<rect x="534.8" y="943.9" class="st33" width="228.1" height="197.8"/>
<g>
	<path class="st34" d="M554.3,996.2l14.4,5.8c0,0-0.6,17.1,1,15.3c1.9,0.1,15.2-1.2,14.8-3.2c0.5-1.7,0.8-1.8,0.6-3.5
		c-0.2-1.7-0.8-9.4-0.8-9.4s0.5-1.8-0.2-3.4c-0.4-0.8-1-1.4-2.2-1.8c-2.3-1-9.4-3.9-9.4-3.9H570c0,0-17,1.7-15.7,4.9
		c-0.1,1.3,0.8,8.1,0.8,16.5c1,0.7,9.5,5.6,13.6,3.9"/>
	<line class="st34" x1="569.2" y1="1002" x2="584.1" y2="997.8"/>
	<path class="st35" d="M555.9,999.2c0,0,0.1,3.3,0.7,3.2c0.3-0.2,0.5-0.8,0.5-0.8l0.2,0.8h0.4c0,0,0.1,7.5,0.8,6.8
		c0.7-0.8,2-1.6,2-2.6c0-1,0.2-3.4,0.2-3.4l0.3,0.1v-0.5l1.2,0.2c0,0,1.2-0.9,0.8-1.7"/>
	<path class="st35" d="M570,1004c0,0,0.1,10.5,0.8,9.6s0.5-1.6,0.5-1.6l-0.2-2.7c0,0,1.4-1.4,1.1-3.7"/>
	<path class="st35" d="M580.5,1001.2c0,0-0.2,2.6,1.3,1.2c0.3,0.1,0.8,8.7,2,9.3c0.5-0.8,0.6-0.5,0.3-2.2c0-2,0-4.2,0-4.2"/>
	<path class="st35" d="M557.9,995.6v-0.6c0,0,1.8-0.3,1.5-0.5c-0.3-0.2,2.5,1.6,1.1,2S557.9,995.6,557.9,995.6z"/>
	<path class="st36" d="M554.2,1011.7c0,0-9.9-0.1-6.5,4.3c1.7,0.6,7-0.4,5,2.3c-2,2.7,2.4,2.6,2.4,2.6s7.7,0.3,6,2.2
		c-1.6,0.8-6,0.4-6.3,1.9c1,0.8,1.9,0.8,1.9,0.8l5.3-0.7c0,0,8.5-0.3,8.2-2.3c1.3-0.2,9.1-0.8,11.4-2.3c1.8,0.1,6.7,0.5,6.7-0.3
		c0-0.6,2.5-0.8,0-1.8c-2.5-1-5.4-1.2-5.4-1.2s2.6-1.5,3.4-0.8c1.3,0.1,6.2-0.9,3.6-2.6c-3-1.3-4.7-1.3-4.7-1.3"/>
	<path class="st34" d="M563.3,1021.1c0,0,4.6,1.1,4.6,0.4c0-0.7,1.2-1.2-0.7-1c-1.9,0.2-2.9-1.7-3.3,0
		C563.5,1022.1,563.3,1021.1,563.3,1021.1z"/>
</g>
<g>
	<polygon class="st15" points="560.7,981.7 560.7,966 555.1,966 555.1,965.5 568.4,957 569.1,956.8 574.2,960.2 574.2,960.5 
		574.2,958.2 573.9,957.7 573.9,956.8 576.8,956.8 576.8,957.9 576.6,958.2 576.6,961.1 576.8,961.9 582.5,965.7 582.2,966 
		576.8,965.9 576.9,981.7 	"/>
	<path class="st37" d="M588.1,969.2c0,0-5.6,2.2-9.3,0c-3.1,1-6.6,1.8-9.3,0.5c-0.5-0.5-7.9,1.9-11.8-0.5c-1.1,0-5.6,2.5-8.1,0v12.7
		h38.6V969.2z"/>
</g>
<text transform="matrix(1 0 0 1 602.0217 972.0576)"><tspan x="0" y="0" class="st6 st17">More drought and more flooding</tspan><tspan x="0" y="39.6" class="st6 st17">Less ice and snow</tspan><tspan x="0" y="79.2" class="st6 st17">More extreme weather incidents </tspan><tspan x="0" y="92.4" class="st6 st17">  </tspan><tspan x="0" y="118.8" class="st6 st17">Rising sea level</tspan></text>
<g>
	<path class="st27" d="M563.4,1041.5c0,0-8.1-1.1-9.6,1.7c-0.9,0-5.2-0.2-3.1,4.2c2.1,2-0.3,2.7,10.8,3.2c1.2,0-1.6,0.5,3.2,1.3
		c2.4,0.5,17.3,1.4,18.4-2c1.5-1.3,2.1-0.8,2.1-0.8s12.3-1.2,7.1-3.9c0.3-0.6,1.3-3.6-6.8-3.8c-1.9-0.5-2.9-1.7-9.5-0.5
		c-0.3-0.5,0.4-1.1-2.5-1.7c-0.1-0.6-2-2.2-6.8-1c-0.9,0.5-2.4,1-0.7,1.8C566.1,1039.8,562.8,1040.8,563.4,1041.5z"/>
	<path class="st27" d="M566.4,1053.2c0,0,10.4,1.4,13.2,0c-2.3,1.7-6.6,4.9-6.6,4.9l5.5,3.5l-20.4,8.6l10.5-8.2l-4.8-3L566.4,1053.2
		z"/>
</g>
<g>
	<path class="st38" d="M544.1,1095.3c0,0,10.9,13.9,20,1.1c1.1,1.1,7.5,11.2,16,0.7c1.1,0.2,8.4,11.2,17.5-0.5"/>
	<path class="st38" d="M544.7,1098.7c0,0,10.9,13.9,20,1.1c1.1,1.1,7.5,11.2,16,0.7c1.1,0.2,8.4,11.2,17.5-0.5"/>
	<path class="st38" d="M544.7,1102.1c0,0,10.9,13.9,20,1.1c1.1,1.1,7.5,11.2,16,0.7c1.1,0.2,8.4,11.2,17.5-0.5"/>
	<path class="st38" d="M544.7,1105.4c0,0,10.9,13.9,20,1.1c1.1,1.1,7.5,11.2,16,0.7c1.1,0.2,8.4,11.2,17.5-0.5"/>
	<path class="st38" d="M555.7,1083.9"/>
	<g>
		<polyline class="st35" points="555.7,1093.1 555.7,1084.8 551.7,1087.7 		"/>
		<line class="st35" x1="559.5" y1="1087.2" x2="555.7" y2="1084.8"/>
	</g>
	<g>
		<polyline class="st35" points="579.6,1093.1 579.6,1084.8 575.6,1087.7 		"/>
		<line class="st35" x1="583.4" y1="1087.2" x2="579.6" y2="1084.8"/>
	</g>
</g>
<rect x="657.3" y="161.2" class="st3" width="9.6" height="3.6"/>
<rect x="653.8" y="166" class="st3" width="4.8" height="6.2"/>
<rect x="664" y="172.9" class="st3" width="1.6" height="3.1"/>
<line class="st39" x1="40.1" y1="756" x2="290.9" y2="756"/>
<line class="st39" x1="40.1" y1="756" x2="40.1" y2="659.3"/>
<line class="st39" x1="81.9" y1="756" x2="81.9" y2="659.3"/>
<line class="st39" x1="123.7" y1="756" x2="123.7" y2="659.3"/>
<line class="st39" x1="165.5" y1="756" x2="165.5" y2="659.3"/>
<line class="st39" x1="207.3" y1="756" x2="207.3" y2="659.3"/>
<line class="st18" x1="249.1" y1="756" x2="249.1" y2="659.3"/>
<line class="st18" x1="290.9" y1="756" x2="290.9" y2="659.3"/>
<line class="st39" x1="40.1" y1="756" x2="40.1" y2="659.3"/>
<line class="st18" x1="40.1" y1="756" x2="290.9" y2="756"/>
<line class="st18" x1="40.1" y1="731.8" x2="290.9" y2="731.8"/>
<line class="st18" x1="40.1" y1="707.6" x2="290.9" y2="707.6"/>
<line class="st18" x1="40.1" y1="683.4" x2="290.9" y2="683.4"/>
<line class="st18" x1="40.1" y1="659.3" x2="290.9" y2="659.3"/>
<line class="st40" x1="102.8" y1="743" x2="61" y2="746.6"/>
<line class="st40" x1="144.6" y1="729.8" x2="102.8" y2="743"/>
<line class="st40" x1="186.4" y1="719.5" x2="144.6" y2="729.8"/>
<line class="st40" x1="228.2" y1="682.2" x2="186.4" y2="719.5"/>
<line class="st40" x1="270" y1="680.5" x2="228.2" y2="682.2"/>
<rect x="58.5" y="745.1" class="st20" width="5" height="2.9"/>
<rect x="100.3" y="741.5" class="st20" width="5" height="2.9"/>
<rect x="142.1" y="728.3" class="st20" width="5" height="2.9"/>
<rect x="183.9" y="718" class="st20" width="5" height="2.9"/>
<rect x="225.7" y="680.8" class="st20" width="5" height="2.9"/>
<line class="st20" x1="267.5" y1="679.1" x2="272.4" y2="679.1"/>
<text transform="matrix(1 0 0 1 262.7827 762.6875)" class="st6 st9">2014</text>
<text transform="matrix(1 0 0 1 220.9819 762.6875)" class="st6 st9">2010</text>
<text transform="matrix(1 0 0 1 179.1841 762.6875)" class="st6 st9">2000</text>
<text transform="matrix(1 0 0 1 137.3833 762.6875)" class="st6 st9">1990</text>
<text transform="matrix(1 0 0 1 95.5845 762.6875)" class="st6 st9">1980</text>
<text transform="matrix(1 0 0 1 53.7827 762.6875)" class="st6 st9">1970</text>
<line class="st18" x1="-431.2" y1="530.2" x2="-253.9" y2="530.2"/>
<line class="st18" x1="-431.2" y1="530.2" x2="-431.2" y2="436.8"/>
<line class="st18" x1="-386.9" y1="530.2" x2="-386.9" y2="436.8"/>
<line class="st18" x1="-342.5" y1="530.2" x2="-342.5" y2="436.8"/>
<line class="st18" x1="-298.2" y1="530.2" x2="-298.2" y2="436.8"/>
<line class="st18" x1="-253.9" y1="530.2" x2="-253.9" y2="436.8"/>
<text transform="matrix(1 0 0 1 -448.36 532.7341)" class="st6 st9">4000</text>
<text transform="matrix(1 0 0 1 -448.36 509.3723)" class="st6 st9">5000</text>
<text transform="matrix(1 0 0 1 -448.36 486.0099)" class="st6 st9">6000</text>
<text transform="matrix(1 0 0 1 -448.36 462.6506)" class="st6 st9">7000</text>
<text transform="matrix(1 0 0 1 -448.36 439.2883)" class="st6 st9">8000</text>
<line class="st18" x1="-431.2" y1="530.2" x2="-431.2" y2="436.8"/>
<line class="st18" x1="-431.2" y1="530.2" x2="-253.9" y2="530.2"/>
<line class="st18" x1="-431.2" y1="506.9" x2="-253.9" y2="506.9"/>
<line class="st18" x1="-431.2" y1="483.5" x2="-253.9" y2="483.5"/>
<line class="st18" x1="-431.2" y1="460.2" x2="-253.9" y2="460.2"/>
<line class="st18" x1="-431.2" y1="436.8" x2="-253.9" y2="436.8"/>
<line class="st19" x1="-364.7" y1="478" x2="-409.1" y2="460.2"/>
<line class="st19" x1="-320.4" y1="516.9" x2="-364.7" y2="478"/>
<line class="st19" x1="-276" y1="487.2" x2="-320.4" y2="516.9"/>
<rect x="-410.8" y="458.8" class="st20" width="3.5" height="2.8"/>
<rect x="-366.5" y="476.6" class="st20" width="3.5" height="2.8"/>
<rect x="-322.1" y="515.5" class="st20" width="3.5" height="2.8"/>
<rect x="-277.8" y="485.8" class="st20" width="3.5" height="2.8"/>
<text transform="matrix(1 0 0 1 -283.2174 536.6862)" class="st6 st9">2013</text>
<text transform="matrix(1 0 0 1 -327.5583 536.6862)" class="st6 st9">2012</text>
<text transform="matrix(1 0 0 1 -371.8981 536.6862)" class="st6 st9">2011</text>
<text transform="matrix(1 0 0 1 -416.237 536.6862)" class="st6 st9">2010</text>
<ellipse class="st4" cx="-409" cy="460.4" rx="2.9" ry="2.3"/>
<ellipse class="st4" cx="-364.9" cy="477.8" rx="2.9" ry="2.3"/>
<ellipse class="st4" cx="-319.9" cy="517.1" rx="2.9" ry="2.3"/>
<ellipse class="st4" cx="-275.7" cy="487.1" rx="2.9" ry="2.3"/>
<line class="st16" x1="-423.8" y1="550.1" x2="-607.3" y2="550.1"/>
<line class="st39" x1="-435.9" y1="644.5" x2="-255.2" y2="644.5"/>
<line class="st39" x1="-435.9" y1="644.5" x2="-435.9" y2="551.3"/>
<line class="st39" x1="-405.8" y1="644.5" x2="-405.8" y2="551.3"/>
<line class="st39" x1="-375.6" y1="644.5" x2="-375.6" y2="551.3"/>
<line class="st39" x1="-345.5" y1="644.5" x2="-345.5" y2="551.3"/>
<line class="st39" x1="-315.4" y1="644.5" x2="-315.4" y2="551.3"/>
<line class="st18" x1="-285.3" y1="644.5" x2="-285.3" y2="551.3"/>
<line class="st18" x1="-255.2" y1="644.5" x2="-255.2" y2="551.3"/>
<text transform="matrix(1 0 0 1 -445.8964 646.997)" class="st6 st9">20</text>
<text transform="matrix(1 0 0 1 -445.8964 623.6865)" class="st6 st9">40</text>
<text transform="matrix(1 0 0 1 -445.8964 600.3769)" class="st6 st9">60</text>
<text transform="matrix(1 0 0 1 -445.8964 577.0673)" class="st6 st9">80</text>
<text transform="matrix(1 0 0 1 -449.4872 553.7587)" class="st6 st9">100</text>
<line class="st39" x1="-435.9" y1="644.5" x2="-435.9" y2="551.3"/>
<line class="st18" x1="-435.9" y1="644.5" x2="-255.2" y2="644.5"/>
<line class="st18" x1="-435.9" y1="621.2" x2="-255.2" y2="621.2"/>
<line class="st18" x1="-435.9" y1="597.9" x2="-255.2" y2="597.9"/>
<line class="st18" x1="-435.9" y1="574.6" x2="-255.2" y2="574.6"/>
<line class="st18" x1="-435.9" y1="551.3" x2="-255.2" y2="551.3"/>
<line class="st40" x1="-390.7" y1="631.9" x2="-420.8" y2="635.4"/>
<line class="st40" x1="-360.6" y1="619.2" x2="-390.7" y2="631.9"/>
<line class="st40" x1="-330.5" y1="609.3" x2="-360.6" y2="619.2"/>
<line class="st40" x1="-300.3" y1="573.4" x2="-330.5" y2="609.3"/>
<line class="st40" x1="-270.2" y1="571.8" x2="-300.3" y2="573.4"/>
<rect x="-422.6" y="634" class="st20" width="3.6" height="2.8"/>
<rect x="-392.5" y="630.5" class="st20" width="3.6" height="2.8"/>
<rect x="-362.4" y="617.8" class="st20" width="3.6" height="2.8"/>
<rect x="-332.2" y="607.9" class="st20" width="3.6" height="2.8"/>
<rect x="-302.1" y="572" class="st20" width="3.6" height="2.8"/>
<line class="st20" x1="-272" y1="570.4" x2="-268.4" y2="570.4"/>
<text transform="matrix(1 0 0 1 -277.3973 650.9394)" class="st6 st9">2014</text>
<text transform="matrix(1 0 0 1 -307.5204 650.9394)" class="st6 st9">2010</text>
<text transform="matrix(1 0 0 1 -337.6425 650.9394)" class="st6 st9">2000</text>
<text transform="matrix(1 0 0 1 -367.7655 650.9394)" class="st6 st9">1990</text>
<text transform="matrix(1 0 0 1 -397.8876 650.9394)" class="st6 st9">1980</text>
<text transform="matrix(1 0 0 1 -428.0116 650.9394)" class="st6 st9">1970</text>
<ellipse class="st3" cx="-360.5" cy="619.4" rx="3" ry="2.3"/>
<ellipse class="st3" cx="-390.7" cy="632.1" rx="3" ry="2.3"/>
<ellipse class="st3" cx="-420.8" cy="635.6" rx="3" ry="2.3"/>
<ellipse class="st3" cx="-330.4" cy="609.3" rx="3" ry="2.3"/>
<ellipse class="st3" cx="-300.3" cy="573.9" rx="3" ry="2.3"/>
<ellipse class="st3" cx="-269.9" cy="570.2" rx="3" ry="2.3"/>
<ellipse class="st3" cx="270" cy="678" rx="3.7" ry="3.4"/>
<ellipse class="st15" cx="257.9" cy="416.8" rx="3.8" ry="3.4"/>
<ellipse class="st15" cx="195.2" cy="448.2" rx="3.8" ry="3.4"/>
<ellipse class="st15" cx="132.6" cy="407" rx="3.8" ry="3.4"/>
<ellipse class="st15" cx="70" cy="388.2" rx="3.8" ry="3.4"/>
<ellipse class="st3" cx="228.2" cy="681.4" rx="3.7" ry="3.4"/>
<ellipse class="st3" cx="187.2" cy="719.5" rx="3.7" ry="3.4"/>
<ellipse class="st3" cx="144.6" cy="729.8" rx="3.7" ry="3.4"/>
<ellipse class="st3" cx="102.8" cy="743" rx="3.7" ry="3.4"/>
<ellipse class="st3" cx="61" cy="746.6" rx="3.7" ry="3.4"/>
<rect x="417.1" y="1154.7" class="st16" width="431.6" height="57"/>
<text transform="matrix(1 0 0 1 417.0638 1159.6227)"><tspan x="0" y="0" class="st6 st9">                                                                                                                                      </tspan><tspan x="198.9" y="0" class="st12 st9">    AYMARA DIAZ</tspan><tspan x="0" y="8.4" class="st6 st9">                                                                                                                                         </tspan><tspan x="203.3" y="8.4" class="st12 st9"> CLIENT:</tspan><tspan x="228.7" y="8.4" class="st6 st9"> THE NEW YORK TIMES</tspan><tspan x="0" y="16.8" class="st6 st9">                                                                                                                                         </tspan><tspan x="203.3" y="16.8" class="st12 st9">  SOURCES:</tspan><tspan x="237.4" y="16.8" class="st6 st9"> U.S DEPARTMENT OF AGRICULTURE</tspan><tspan x="0" y="25.2" class="st6 st9">                                                                                                                                                                 GREENPEACE</tspan><tspan x="0" y="33.6" class="st6 st9">                                                                                                                                                                  IMAZON</tspan><tspan x="0" y="42" class="st6 st9">                                                    </tspan></text>
<circle class="st3" cx="920" cy="768.9" r="11"/>
<circle class="st3" cx="513.7" cy="800.9" r="7"/>
<circle class="st3" cx="511.1" cy="835.7" r="7"/>
<circle class="st3" cx="509" cy="869.9" r="7"/>
<circle class="st3" cx="495" cy="904.1" r="7"/>
<circle class="st3" cx="486.4" cy="938.2" r="7"/>
<circle class="st3" cx="477.9" cy="972.4" r="7"/>
<circle class="st3" cx="468.2" cy="1006.6" r="7"/>
<circle class="st3" cx="462.5" cy="1040.8" r="7"/>
<circle class="st3" cx="461.2" cy="1075" r="7"/>
<circle class="st3" cx="454.3" cy="1109.2" r="7"/>
<circle class="st3" cx="452.6" cy="1143.4" r="7"/>
<circle class="st3" cx="442.7" cy="1177.5" r="7"/>
</svg>
